<svg width="1804" height="1138" viewBox="0 0 1804 1138" fill="none" xmlns="http://www.w3.org/2000/svg">
<g filter="url(#filter0_di_424_217)">
<path d="M4 94H1500C1665.69 94 1800 228.315 1800 394V817C1800 982.685 1665.69 1117 1500 1117H604C272.629 1117 4 848.371 4 517V94Z" fill="#BB98FF"/>
</g>
<mask id="path-2-outside-1_424_217" maskUnits="userSpaceOnUse" x="153" y="192" width="364" height="584" fill="black">
<rect fill="white" x="153" y="192" width="364" height="584"/>
<path d="M154.386 775V193.182H259.784V686.648H516.034V775H154.386Z"/>
</mask>
<g filter="url(#filter1_ii_424_217)">
<path d="M154.386 775V193.182H259.784V686.648H516.034V775H154.386Z" fill="white"/>
</g>
<path d="M154.386 775H153.886V775.5H154.386V775ZM154.386 193.182V192.682H153.886V193.182H154.386ZM259.784 193.182H260.284V192.682H259.784V193.182ZM259.784 686.648H259.284V687.148H259.784V686.648ZM516.034 686.648H516.534V686.148H516.034V686.648ZM516.034 775V775.5H516.534V775H516.034ZM154.886 775V193.182H153.886V775H154.886ZM154.386 193.682H259.784V192.682H154.386V193.682ZM259.284 193.182V686.648H260.284V193.182H259.284ZM259.784 687.148H516.034V686.148H259.784V687.148ZM515.534 686.648V775H516.534V686.648H515.534ZM516.034 774.5H154.386V775.5H516.034V774.5Z" fill="#3D3D3D" fill-opacity="0.23" mask="url(#path-2-outside-1_424_217)"/>
<mask id="path-4-outside-2_424_217" maskUnits="userSpaceOnUse" x="582" y="550" width="403" height="450" fill="black">
<rect fill="white" x="582" y="550" width="403" height="450"/>
<path d="M983.955 774.818C983.955 821.835 975.148 862.105 957.534 895.628C940.063 929.009 916.199 954.577 885.943 972.332C855.83 990.088 821.668 998.966 783.457 998.966C745.247 998.966 711.014 990.088 680.759 972.332C650.645 954.435 626.781 928.795 609.168 895.415C591.696 861.892 582.96 821.693 582.96 774.818C582.96 727.801 591.696 687.602 609.168 654.222C626.781 620.699 650.645 595.06 680.759 577.304C711.014 559.548 745.247 550.67 783.457 550.67C821.668 550.67 855.83 559.548 885.943 577.304C916.199 595.06 940.063 620.699 957.534 654.222C975.148 687.602 983.955 727.801 983.955 774.818ZM904.48 774.818C904.48 741.722 899.295 713.81 888.926 691.082C878.699 668.213 864.494 650.955 846.312 639.307C828.131 627.517 807.179 621.622 783.457 621.622C759.736 621.622 738.784 627.517 720.602 639.307C702.42 650.955 688.145 668.213 677.776 691.082C667.548 713.81 662.435 741.722 662.435 774.818C662.435 807.915 667.548 835.898 677.776 858.767C688.145 881.494 702.42 898.753 720.602 910.543C738.784 922.19 759.736 928.014 783.457 928.014C807.179 928.014 828.131 922.19 846.312 910.543C864.494 898.753 878.699 881.494 888.926 858.767C899.295 835.898 904.48 807.915 904.48 774.818Z"/>
</mask>
<g filter="url(#filter2_ii_424_217)">
<path d="M983.955 774.818C983.955 821.835 975.148 862.105 957.534 895.628C940.063 929.009 916.199 954.577 885.943 972.332C855.83 990.088 821.668 998.966 783.457 998.966C745.247 998.966 711.014 990.088 680.759 972.332C650.645 954.435 626.781 928.795 609.168 895.415C591.696 861.892 582.96 821.693 582.96 774.818C582.96 727.801 591.696 687.602 609.168 654.222C626.781 620.699 650.645 595.06 680.759 577.304C711.014 559.548 745.247 550.67 783.457 550.67C821.668 550.67 855.83 559.548 885.943 577.304C916.199 595.06 940.063 620.699 957.534 654.222C975.148 687.602 983.955 727.801 983.955 774.818ZM904.48 774.818C904.48 741.722 899.295 713.81 888.926 691.082C878.699 668.213 864.494 650.955 846.312 639.307C828.131 627.517 807.179 621.622 783.457 621.622C759.736 621.622 738.784 627.517 720.602 639.307C702.42 650.955 688.145 668.213 677.776 691.082C667.548 713.81 662.435 741.722 662.435 774.818C662.435 807.915 667.548 835.898 677.776 858.767C688.145 881.494 702.42 898.753 720.602 910.543C738.784 922.19 759.736 928.014 783.457 928.014C807.179 928.014 828.131 922.19 846.312 910.543C864.494 898.753 878.699 881.494 888.926 858.767C899.295 835.898 904.48 807.915 904.48 774.818Z" fill="white"/>
</g>
<path d="M957.534 895.628L957.091 895.395L957.091 895.396L957.534 895.628ZM885.943 972.332L885.69 971.901L885.689 971.902L885.943 972.332ZM680.759 972.332L680.503 972.762L680.505 972.764L680.759 972.332ZM609.168 895.415L608.724 895.646L608.725 895.648L609.168 895.415ZM609.168 654.222L608.725 653.989L608.725 653.99L609.168 654.222ZM680.759 577.304L680.505 576.873L680.505 576.873L680.759 577.304ZM885.943 577.304L885.689 577.735L885.69 577.735L885.943 577.304ZM957.534 654.222L957.091 654.453L957.092 654.455L957.534 654.222ZM888.926 691.082L888.47 691.286L888.471 691.29L888.926 691.082ZM846.312 639.307L846.04 639.726L846.043 639.728L846.312 639.307ZM720.602 639.307L720.872 639.728L720.874 639.726L720.602 639.307ZM677.776 691.082L677.32 690.876L677.32 690.877L677.776 691.082ZM677.776 858.767L677.319 858.971L677.321 858.975L677.776 858.767ZM720.602 910.543L720.33 910.962L720.333 910.964L720.602 910.543ZM846.312 910.543L846.582 910.964L846.585 910.962L846.312 910.543ZM888.926 858.767L888.471 858.561L888.47 858.562L888.926 858.767ZM983.455 774.818C983.455 821.773 974.659 861.96 957.091 895.395L957.977 895.86C975.636 862.251 984.455 821.897 984.455 774.818H983.455ZM957.091 895.396C939.66 928.7 915.859 954.196 885.69 971.901L886.196 972.764C916.539 954.957 940.465 929.317 957.977 895.86L957.091 895.396ZM885.689 971.902C855.66 989.608 821.587 998.466 783.457 998.466V999.466C821.748 999.466 856 990.568 886.197 972.763L885.689 971.902ZM783.457 998.466C745.328 998.466 711.184 989.608 681.012 971.901L680.505 972.764C710.845 990.568 745.166 999.466 783.457 999.466V998.466ZM681.014 971.903C650.986 954.056 627.184 928.487 609.61 895.181L608.725 895.648C626.379 929.104 650.304 954.814 680.503 972.762L681.014 971.903ZM609.611 895.184C592.184 861.747 583.46 821.632 583.46 774.818H582.46C582.46 821.755 591.208 862.037 608.724 895.646L609.611 895.184ZM583.46 774.818C583.46 727.862 592.185 687.747 609.611 654.453L608.725 653.99C591.207 687.458 582.46 727.74 582.46 774.818H583.46ZM609.61 654.454C627.184 621.007 650.986 595.439 681.012 577.735L680.505 576.873C650.304 594.68 626.378 620.391 608.725 653.989L609.61 654.454ZM681.012 577.735C711.184 560.029 745.328 551.17 783.457 551.17V550.17C745.166 550.17 710.845 559.068 680.505 576.873L681.012 577.735ZM783.457 551.17C821.587 551.17 855.66 560.029 885.689 577.735L886.197 576.873C856 559.068 821.748 550.17 783.457 550.17V551.17ZM885.69 577.735C915.859 595.44 939.659 621.006 957.091 654.453L957.977 653.99C940.466 620.391 916.539 594.68 886.196 576.873L885.69 577.735ZM957.092 654.455C974.659 687.748 983.455 727.863 983.455 774.818H984.455C984.455 727.739 975.636 687.456 957.976 653.988L957.092 654.455ZM904.98 774.818C904.98 741.672 899.788 713.685 889.381 690.875L888.471 691.29C898.803 713.935 903.98 741.771 903.98 774.818H904.98ZM889.383 690.878C879.122 667.935 864.859 650.594 846.582 638.886L846.043 639.728C864.13 651.315 878.276 668.492 888.47 691.286L889.383 690.878ZM846.585 638.887C828.314 627.04 807.266 621.122 783.457 621.122V622.122C807.092 622.122 827.947 627.994 846.04 639.726L846.585 638.887ZM783.457 621.122C759.649 621.122 738.601 627.04 720.33 638.887L720.874 639.726C738.967 627.994 759.823 622.122 783.457 622.122V621.122ZM720.333 638.886C702.057 650.594 687.723 667.933 677.32 690.876L678.231 691.289C688.567 668.493 702.784 651.315 720.872 639.728L720.333 638.886ZM677.32 690.877C667.055 713.686 661.935 741.673 661.935 774.818H662.935C662.935 741.77 668.041 713.933 678.232 691.288L677.32 690.877ZM661.935 774.818C661.935 807.964 667.055 836.021 677.319 858.971L678.232 858.563C668.041 835.775 662.935 807.866 662.935 774.818H661.935ZM677.321 858.975C687.723 881.775 702.057 899.113 720.33 910.962L720.874 910.123C702.784 898.393 688.566 881.214 678.23 858.559L677.321 858.975ZM720.333 910.964C738.603 922.668 759.65 928.514 783.457 928.514V927.514C759.822 927.514 738.965 921.713 720.872 910.122L720.333 910.964ZM783.457 928.514C807.265 928.514 828.312 922.668 846.582 910.964L846.043 910.122C827.949 921.713 807.093 927.514 783.457 927.514V928.514ZM846.585 910.962C864.859 899.113 879.121 881.774 889.382 858.972L888.47 858.562C878.276 881.215 864.13 898.393 846.04 910.123L846.585 910.962ZM889.382 858.974C899.788 836.022 904.98 807.964 904.98 774.818H903.98C903.98 807.865 898.803 835.773 888.471 858.561L889.382 858.974Z" fill="#3D3D3D" fill-opacity="0.23" mask="url(#path-4-outside-2_424_217)"/>
<mask id="path-6-outside-3_424_217" maskUnits="userSpaceOnUse" x="1058" y="192" width="375" height="584" fill="black">
<rect fill="white" x="1058" y="192" width="375" height="584"/>
<path d="M1059.39 775V193.182H1432.11V281.534H1164.78V439.489H1406.55V527.841H1164.78V775H1059.39Z"/>
</mask>
<g filter="url(#filter3_ii_424_217)">
<path d="M1059.39 775V193.182H1432.11V281.534H1164.78V439.489H1406.55V527.841H1164.78V775H1059.39Z" fill="white"/>
</g>
<path d="M1059.39 775H1058.89V775.5H1059.39V775ZM1059.39 193.182V192.682H1058.89V193.182H1059.39ZM1432.11 193.182H1432.61V192.682H1432.11V193.182ZM1432.11 281.534V282.034H1432.61V281.534H1432.11ZM1164.78 281.534V281.034H1164.28V281.534H1164.78ZM1164.78 439.489H1164.28V439.989H1164.78V439.489ZM1406.55 439.489H1407.05V438.989H1406.55V439.489ZM1406.55 527.841V528.341H1407.05V527.841H1406.55ZM1164.78 527.841V527.341H1164.28V527.841H1164.78ZM1164.78 775V775.5H1165.28V775H1164.78ZM1059.89 775V193.182H1058.89V775H1059.89ZM1059.39 193.682H1432.11V192.682H1059.39V193.682ZM1431.61 193.182V281.534H1432.61V193.182H1431.61ZM1432.11 281.034H1164.78V282.034H1432.11V281.034ZM1164.28 281.534V439.489H1165.28V281.534H1164.28ZM1164.78 439.989H1406.55V438.989H1164.78V439.989ZM1406.05 439.489V527.841H1407.05V439.489H1406.05ZM1406.55 527.341H1164.78V528.341H1406.55V527.341ZM1164.28 527.841V775H1165.28V527.841H1164.28ZM1164.78 774.5H1059.39V775.5H1164.78V774.5Z" fill="#3D3D3D" fill-opacity="0.23" mask="url(#path-6-outside-3_424_217)"/>
<mask id="path-8-outside-4_424_217" maskUnits="userSpaceOnUse" x="1465" y="556" width="81" height="438" fill="black">
<rect fill="white" x="1465" y="556" width="81" height="438"/>
<path d="M1545.09 556.636V993H1466.04V556.636H1545.09Z"/>
</mask>
<g filter="url(#filter4_ii_424_217)">
<path d="M1545.09 556.636V993H1466.04V556.636H1545.09Z" fill="white"/>
</g>
<path d="M1545.09 556.636H1545.59V556.136H1545.09V556.636ZM1545.09 993V993.5H1545.59V993H1545.09ZM1466.04 993H1465.54V993.5H1466.04V993ZM1466.04 556.636V556.136H1465.54V556.636H1466.04ZM1544.59 556.636V993H1545.59V556.636H1544.59ZM1545.09 992.5H1466.04V993.5H1545.09V992.5ZM1466.54 993V556.636H1465.54V993H1466.54ZM1466.04 557.136H1545.09V556.136H1466.04V557.136Z" fill="#3D3D3D" mask="url(#path-8-outside-4_424_217)"/>
<defs>
<filter id="filter0_di_424_217" x="0" y="82" width="1804" height="1043" filterUnits="userSpaceOnUse" color-interpolation-filters="sRGB">
<feFlood flood-opacity="0" result="BackgroundImageFix"/>
<feColorMatrix in="SourceAlpha" type="matrix" values="0 0 0 0 0 0 0 0 0 0 0 0 0 0 0 0 0 0 127 0" result="hardAlpha"/>
<feOffset dy="4"/>
<feGaussianBlur stdDeviation="2"/>
<feComposite in2="hardAlpha" operator="out"/>
<feColorMatrix type="matrix" values="0 0 0 0 0 0 0 0 0 0 0 0 0 0 0 0 0 0 0.25 0"/>
<feBlend mode="normal" in2="BackgroundImageFix" result="effect1_dropShadow_424_217"/>
<feBlend mode="normal" in="SourceGraphic" in2="effect1_dropShadow_424_217" result="shape"/>
<feColorMatrix in="SourceAlpha" type="matrix" values="0 0 0 0 0 0 0 0 0 0 0 0 0 0 0 0 0 0 127 0" result="hardAlpha"/>
<feMorphology radius="8" operator="erode" in="SourceAlpha" result="effect2_innerShadow_424_217"/>
<feOffset dy="-16"/>
<feGaussianBlur stdDeviation="2"/>
<feComposite in2="hardAlpha" operator="arithmetic" k2="-1" k3="1"/>
<feColorMatrix type="matrix" values="0 0 0 0 0 0 0 0 0 0 0 0 0 0 0 0 0 0 0.25 0"/>
<feBlend mode="normal" in2="shape" result="effect2_innerShadow_424_217"/>
</filter>
<filter id="filter1_ii_424_217" x="154.386" y="188.282" width="361.648" height="591.718" filterUnits="userSpaceOnUse" color-interpolation-filters="sRGB">
<feFlood flood-opacity="0" result="BackgroundImageFix"/>
<feBlend mode="normal" in="SourceGraphic" in2="BackgroundImageFix" result="shape"/>
<feColorMatrix in="SourceAlpha" type="matrix" values="0 0 0 0 0 0 0 0 0 0 0 0 0 0 0 0 0 0 127 0" result="hardAlpha"/>
<feOffset dy="-11"/>
<feGaussianBlur stdDeviation="2.45"/>
<feComposite in2="hardAlpha" operator="arithmetic" k2="-1" k3="1"/>
<feColorMatrix type="matrix" values="0 0 0 0 1 0 0 0 0 0.958333 0 0 0 0 0.958333 0 0 0 0.25 0"/>
<feBlend mode="normal" in2="shape" result="effect1_innerShadow_424_217"/>
<feColorMatrix in="SourceAlpha" type="matrix" values="0 0 0 0 0 0 0 0 0 0 0 0 0 0 0 0 0 0 127 0" result="hardAlpha"/>
<feOffset dy="5"/>
<feGaussianBlur stdDeviation="9.95"/>
<feComposite in2="hardAlpha" operator="arithmetic" k2="-1" k3="1"/>
<feColorMatrix type="matrix" values="0 0 0 0 0.239216 0 0 0 0 0.239216 0 0 0 0 0.239216 0 0 0 1 0"/>
<feBlend mode="normal" in2="effect1_innerShadow_424_217" result="effect2_innerShadow_424_217"/>
</filter>
<filter id="filter2_ii_424_217" x="582.96" y="546.67" width="400.994" height="457.295" filterUnits="userSpaceOnUse" color-interpolation-filters="sRGB">
<feFlood flood-opacity="0" result="BackgroundImageFix"/>
<feBlend mode="normal" in="SourceGraphic" in2="BackgroundImageFix" result="shape"/>
<feColorMatrix in="SourceAlpha" type="matrix" values="0 0 0 0 0 0 0 0 0 0 0 0 0 0 0 0 0 0 127 0" result="hardAlpha"/>
<feOffset dy="-11"/>
<feGaussianBlur stdDeviation="2"/>
<feComposite in2="hardAlpha" operator="arithmetic" k2="-1" k3="1"/>
<feColorMatrix type="matrix" values="0 0 0 0 1 0 0 0 0 0.958333 0 0 0 0 0.958333 0 0 0 0.25 0"/>
<feBlend mode="normal" in2="shape" result="effect1_innerShadow_424_217"/>
<feColorMatrix in="SourceAlpha" type="matrix" values="0 0 0 0 0 0 0 0 0 0 0 0 0 0 0 0 0 0 127 0" result="hardAlpha"/>
<feOffset dy="5"/>
<feGaussianBlur stdDeviation="9.95"/>
<feComposite in2="hardAlpha" operator="arithmetic" k2="-1" k3="1"/>
<feColorMatrix type="matrix" values="0 0 0 0 0.239216 0 0 0 0 0.239216 0 0 0 0 0.239216 0 0 0 1 0"/>
<feBlend mode="normal" in2="effect1_innerShadow_424_217" result="effect2_innerShadow_424_217"/>
</filter>
<filter id="filter3_ii_424_217" x="1059.39" y="189.182" width="372.727" height="590.818" filterUnits="userSpaceOnUse" color-interpolation-filters="sRGB">
<feFlood flood-opacity="0" result="BackgroundImageFix"/>
<feBlend mode="normal" in="SourceGraphic" in2="BackgroundImageFix" result="shape"/>
<feColorMatrix in="SourceAlpha" type="matrix" values="0 0 0 0 0 0 0 0 0 0 0 0 0 0 0 0 0 0 127 0" result="hardAlpha"/>
<feOffset dy="-11"/>
<feGaussianBlur stdDeviation="2"/>
<feComposite in2="hardAlpha" operator="arithmetic" k2="-1" k3="1"/>
<feColorMatrix type="matrix" values="0 0 0 0 1 0 0 0 0 0.958333 0 0 0 0 0.958333 0 0 0 0.25 0"/>
<feBlend mode="normal" in2="shape" result="effect1_innerShadow_424_217"/>
<feColorMatrix in="SourceAlpha" type="matrix" values="0 0 0 0 0 0 0 0 0 0 0 0 0 0 0 0 0 0 127 0" result="hardAlpha"/>
<feOffset dy="5"/>
<feGaussianBlur stdDeviation="9.95"/>
<feComposite in2="hardAlpha" operator="arithmetic" k2="-1" k3="1"/>
<feColorMatrix type="matrix" values="0 0 0 0 0.239216 0 0 0 0 0.239216 0 0 0 0 0.239216 0 0 0 1 0"/>
<feBlend mode="normal" in2="effect1_innerShadow_424_217" result="effect2_innerShadow_424_217"/>
</filter>
<filter id="filter4_ii_424_217" x="1466.04" y="552.636" width="79.0483" height="445.364" filterUnits="userSpaceOnUse" color-interpolation-filters="sRGB">
<feFlood flood-opacity="0" result="BackgroundImageFix"/>
<feBlend mode="normal" in="SourceGraphic" in2="BackgroundImageFix" result="shape"/>
<feColorMatrix in="SourceAlpha" type="matrix" values="0 0 0 0 0 0 0 0 0 0 0 0 0 0 0 0 0 0 127 0" result="hardAlpha"/>
<feOffset dy="-11"/>
<feGaussianBlur stdDeviation="2"/>
<feComposite in2="hardAlpha" operator="arithmetic" k2="-1" k3="1"/>
<feColorMatrix type="matrix" values="0 0 0 0 1 0 0 0 0 0.958333 0 0 0 0 0.958333 0 0 0 0.25 0"/>
<feBlend mode="normal" in2="shape" result="effect1_innerShadow_424_217"/>
<feColorMatrix in="SourceAlpha" type="matrix" values="0 0 0 0 0 0 0 0 0 0 0 0 0 0 0 0 0 0 127 0" result="hardAlpha"/>
<feOffset dy="5"/>
<feGaussianBlur stdDeviation="9.95"/>
<feComposite in2="hardAlpha" operator="arithmetic" k2="-1" k3="1"/>
<feColorMatrix type="matrix" values="0 0 0 0 0.239216 0 0 0 0 0.239216 0 0 0 0 0.239216 0 0 0 1 0"/>
<feBlend mode="normal" in2="effect1_innerShadow_424_217" result="effect2_innerShadow_424_217"/>
</filter>
</defs>
</svg>
