<svg width="138" height="95" viewBox="0 0 138 95" fill="none" xmlns="http://www.w3.org/2000/svg">
<g filter="url(#filter0_d_412_230)">
<path d="M4 0H114C125.046 0 134 8.95431 134 20V67C134 78.0457 125.046 87 114 87H44C21.9086 87 4 69.0914 4 47V0Z" fill="#BB98FF"/>
</g>
<g filter="url(#filter1_di_412_230)">
<mask id="path-2-outside-1_412_230" maskUnits="userSpaceOnUse" x="33" y="21" width="20" height="31" fill="black">
<rect fill="white" x="33" y="21" width="20" height="31"/>
<path d="M33.8693 51V21.9091H39.1392V46.5824H51.9517V51H33.8693Z"/>
</mask>
<path d="M33.8693 51V21.9091H39.1392V46.5824H51.9517V51H33.8693Z" fill="white" shape-rendering="crispEdges"/>
<path d="M33.8693 51H33.3693V51.5H33.8693V51ZM33.8693 21.9091V21.4091H33.3693V21.9091H33.8693ZM39.1392 21.9091H39.6392V21.4091H39.1392V21.9091ZM39.1392 46.5824H38.6392V47.0824H39.1392V46.5824ZM51.9517 46.5824H52.4517V46.0824H51.9517V46.5824ZM51.9517 51V51.5H52.4517V51H51.9517ZM34.3693 51V21.9091H33.3693V51H34.3693ZM33.8693 22.4091H39.1392V21.4091H33.8693V22.4091ZM38.6392 21.9091V46.5824H39.6392V21.9091H38.6392ZM39.1392 47.0824H51.9517V46.0824H39.1392V47.0824ZM51.4517 46.5824V51H52.4517V46.5824H51.4517ZM51.9517 50.5H33.8693V51.5H51.9517V50.5Z" fill="#3D3D3D" fill-opacity="0.23" mask="url(#path-2-outside-1_412_230)"/>
</g>
<g filter="url(#filter2_di_412_230)">
<mask id="path-4-outside-2_412_230" maskUnits="userSpaceOnUse" x="55" y="37" width="22" height="24" fill="black">
<rect fill="white" x="55" y="37" width="22" height="24"/>
<path d="M75.6477 49.0909C75.6477 51.4418 75.2074 53.4553 74.3267 55.1314C73.4531 56.8004 72.2599 58.0788 70.7472 58.9666C69.2415 59.8544 67.5334 60.2983 65.6229 60.2983C63.7124 60.2983 62.0007 59.8544 60.4879 58.9666C58.9822 58.0717 57.7891 56.7898 56.9084 55.1207C56.0348 53.4446 55.598 51.4347 55.598 49.0909C55.598 46.7401 56.0348 44.7301 56.9084 43.0611C57.7891 41.3849 58.9822 40.103 60.4879 39.2152C62.0007 38.3274 63.7124 37.8835 65.6229 37.8835C67.5334 37.8835 69.2415 38.3274 70.7472 39.2152C72.2599 40.103 73.4531 41.3849 74.3267 43.0611C75.2074 44.7301 75.6477 46.7401 75.6477 49.0909ZM71.674 49.0909C71.674 47.4361 71.4148 46.0405 70.8963 44.9041C70.3849 43.7607 69.6747 42.8977 68.7656 42.3153C67.8565 41.7259 66.8089 41.4311 65.6229 41.4311C64.4368 41.4311 63.3892 41.7259 62.4801 42.3153C61.571 42.8977 60.8572 43.7607 60.3388 44.9041C59.8274 46.0405 59.5717 47.4361 59.5717 49.0909C59.5717 50.7457 59.8274 52.1449 60.3388 53.2884C60.8572 54.4247 61.571 55.2876 62.4801 55.8771C63.3892 56.4595 64.4368 56.7507 65.6229 56.7507C66.8089 56.7507 67.8565 56.4595 68.7656 55.8771C69.6747 55.2876 70.3849 54.4247 70.8963 53.2884C71.4148 52.1449 71.674 50.7457 71.674 49.0909Z"/>
</mask>
<path d="M75.6477 49.0909C75.6477 51.4418 75.2074 53.4553 74.3267 55.1314C73.4531 56.8004 72.2599 58.0788 70.7472 58.9666C69.2415 59.8544 67.5334 60.2983 65.6229 60.2983C63.7124 60.2983 62.0007 59.8544 60.4879 58.9666C58.9822 58.0717 57.7891 56.7898 56.9084 55.1207C56.0348 53.4446 55.598 51.4347 55.598 49.0909C55.598 46.7401 56.0348 44.7301 56.9084 43.0611C57.7891 41.3849 58.9822 40.103 60.4879 39.2152C62.0007 38.3274 63.7124 37.8835 65.6229 37.8835C67.5334 37.8835 69.2415 38.3274 70.7472 39.2152C72.2599 40.103 73.4531 41.3849 74.3267 43.0611C75.2074 44.7301 75.6477 46.7401 75.6477 49.0909ZM71.674 49.0909C71.674 47.4361 71.4148 46.0405 70.8963 44.9041C70.3849 43.7607 69.6747 42.8977 68.7656 42.3153C67.8565 41.7259 66.8089 41.4311 65.6229 41.4311C64.4368 41.4311 63.3892 41.7259 62.4801 42.3153C61.571 42.8977 60.8572 43.7607 60.3388 44.9041C59.8274 46.0405 59.5717 47.4361 59.5717 49.0909C59.5717 50.7457 59.8274 52.1449 60.3388 53.2884C60.8572 54.4247 61.571 55.2876 62.4801 55.8771C63.3892 56.4595 64.4368 56.7507 65.6229 56.7507C66.8089 56.7507 67.8565 56.4595 68.7656 55.8771C69.6747 55.2876 70.3849 54.4247 70.8963 53.2884C71.4148 52.1449 71.674 50.7457 71.674 49.0909Z" fill="white" shape-rendering="crispEdges"/>
<path d="M74.3267 55.1314L73.8841 54.8988L73.8837 54.8995L74.3267 55.1314ZM70.7472 58.9666L70.4941 58.5354L70.4932 58.5359L70.7472 58.9666ZM60.4879 58.9666L60.2325 59.3964L60.2349 59.3978L60.4879 58.9666ZM56.9084 55.1207L56.465 55.3518L56.4662 55.3541L56.9084 55.1207ZM56.9084 43.0611L56.4658 42.8285L56.4654 42.8292L56.9084 43.0611ZM60.4879 39.2152L60.2349 38.784L60.234 38.7845L60.4879 39.2152ZM70.7472 39.2152L70.4932 39.6459L70.4941 39.6464L70.7472 39.2152ZM74.3267 43.0611L73.8833 43.2922L73.8845 43.2944L74.3267 43.0611ZM70.8963 44.9041L70.4399 45.1082L70.4414 45.1117L70.8963 44.9041ZM68.7656 42.3153L68.4936 42.7349L68.4959 42.7364L68.7656 42.3153ZM62.4801 42.3153L62.7498 42.7364L62.7521 42.7349L62.4801 42.3153ZM60.3388 44.9041L59.8834 44.6976L59.8828 44.6989L60.3388 44.9041ZM60.3388 53.2884L59.8823 53.4925L59.8839 53.4959L60.3388 53.2884ZM62.4801 55.8771L62.2081 56.2967L62.2104 56.2981L62.4801 55.8771ZM68.7656 55.8771L69.0353 56.2982L69.0377 56.2967L68.7656 55.8771ZM70.8963 53.2884L70.4409 53.0819L70.4403 53.0832L70.8963 53.2884ZM75.1477 49.0909C75.1477 51.38 74.719 53.3097 73.8841 54.8988L74.7693 55.364C75.6957 53.6008 76.1477 51.5036 76.1477 49.0909H75.1477ZM73.8837 54.8995C73.0502 56.492 71.9202 57.6985 70.4941 58.5354L71.0002 59.3978C72.5997 58.4592 73.8561 57.1088 74.7697 55.3633L73.8837 54.8995ZM70.4932 58.5359C69.0715 59.3742 67.4526 59.7983 65.6229 59.7983V60.7983C67.6141 60.7983 69.4114 60.3346 71.0011 59.3973L70.4932 58.5359ZM65.6229 59.7983C63.7931 59.7983 62.1703 59.3742 60.741 58.5354L60.2349 59.3978C61.8311 60.3346 63.6316 60.7983 65.6229 60.7983V59.7983ZM60.7434 58.5368C59.323 57.6926 58.1918 56.4815 57.3506 54.8874L56.4662 55.3541C57.3864 57.098 58.6415 58.4509 60.2325 59.3964L60.7434 58.5368ZM57.3518 54.8896C56.5233 53.3 56.098 51.3732 56.098 49.0909H55.098C55.098 51.4961 55.5463 53.5892 56.465 55.3518L57.3518 54.8896ZM56.098 49.0909C56.098 46.8012 56.5234 44.8748 57.3514 43.2929L56.4654 42.8292C55.5462 44.5854 55.098 46.6789 55.098 49.0909H56.098ZM57.351 43.2936C58.1922 41.6927 59.3229 40.4825 60.7419 39.6459L60.234 38.7845C58.6416 39.7234 57.3859 41.0772 56.4658 42.8285L57.351 43.2936ZM60.741 39.6464C62.1703 38.8076 63.7931 38.3835 65.6229 38.3835V37.3835C63.6316 37.3835 61.8311 37.8472 60.2349 38.784L60.741 39.6464ZM65.6229 38.3835C67.4526 38.3835 69.0715 38.8076 70.4932 39.6459L71.0011 38.7845C69.4114 37.8472 67.6141 37.3835 65.6229 37.3835V38.3835ZM70.4941 39.6464C71.9196 40.483 73.0496 41.6926 73.8833 43.2922L74.7701 42.83C73.8566 41.0773 72.6003 39.723 71.0002 38.784L70.4941 39.6464ZM73.8845 43.2944C74.719 44.876 75.1477 46.8018 75.1477 49.0909H76.1477C76.1477 46.6784 75.6958 44.5843 74.7689 42.8277L73.8845 43.2944ZM72.174 49.0909C72.174 47.3866 71.9074 45.9156 71.3512 44.6966L70.4414 45.1117C70.9222 46.1653 71.174 47.4855 71.174 49.0909H72.174ZM71.3527 44.7C70.8081 43.4822 70.039 42.5373 69.0353 41.8943L68.4959 42.7364C69.3105 43.2582 69.9618 44.0391 70.4399 45.1082L71.3527 44.7ZM69.0377 41.8958C68.0399 41.2489 66.896 40.9311 65.6229 40.9311V41.9311C66.7219 41.9311 67.6731 42.2028 68.4936 42.7349L69.0377 41.8958ZM65.6229 40.9311C64.3498 40.9311 63.2058 41.2489 62.2081 41.8958L62.7521 42.7349C63.5726 42.2028 64.5238 41.9311 65.6229 41.9311V40.9311ZM62.2104 41.8943C61.2075 42.5368 60.4351 43.4809 59.8834 44.6976L60.7942 45.1106C61.2794 44.0404 61.9346 43.2586 62.7498 42.7364L62.2104 41.8943ZM59.8828 44.6989C59.3346 45.9173 59.0717 47.3874 59.0717 49.0909H60.0717C60.0717 47.4848 60.3203 46.1637 60.7947 45.1093L59.8828 44.6989ZM59.0717 49.0909C59.0717 50.7946 59.3346 52.2677 59.8823 53.4925L60.7952 53.0842C60.3202 52.0221 60.0717 50.6969 60.0717 49.0909H59.0717ZM59.8839 53.4959C60.4357 54.7054 61.2075 55.6478 62.2081 56.2967L62.7521 55.4576C61.9346 54.9275 61.2788 54.1441 60.7937 53.0808L59.8839 53.4959ZM62.2104 56.2981C63.2079 56.9371 64.351 57.2507 65.6229 57.2507V56.2507C64.5226 56.2507 63.5706 55.9819 62.7498 55.4561L62.2104 56.2981ZM65.6229 57.2507C66.8948 57.2507 68.0379 56.9371 69.0353 56.2981L68.4959 55.4561C67.6752 55.9819 66.7231 56.2507 65.6229 56.2507V57.2507ZM69.0377 56.2967C70.0389 55.6474 70.8075 54.7041 71.3523 53.4935L70.4403 53.0832C69.9624 54.1454 69.3105 54.9279 68.4936 55.4576L69.0377 56.2967ZM71.3517 53.4948C71.9073 52.2694 72.174 50.7954 72.174 49.0909H71.174C71.174 50.6961 70.9222 52.0204 70.4409 53.0819L71.3517 53.4948Z" fill="#3D3D3D" fill-opacity="0.23" mask="url(#path-4-outside-2_412_230)"/>
</g>
<g filter="url(#filter3_di_412_230)">
<mask id="path-6-outside-3_412_230" maskUnits="userSpaceOnUse" x="80" y="21" width="21" height="31" fill="black">
<rect fill="white" x="80" y="21" width="21" height="31"/>
<path d="M80.8693 51V21.9091H99.5057V26.3267H86.1392V34.2244H98.2273V38.642H86.1392V51H80.8693Z"/>
</mask>
<path d="M80.8693 51V21.9091H99.5057V26.3267H86.1392V34.2244H98.2273V38.642H86.1392V51H80.8693Z" fill="white" shape-rendering="crispEdges"/>
<path d="M80.8693 51H80.3693V51.5H80.8693V51ZM80.8693 21.9091V21.4091H80.3693V21.9091H80.8693ZM99.5057 21.9091H100.006V21.4091H99.5057V21.9091ZM99.5057 26.3267V26.8267H100.006V26.3267H99.5057ZM86.1392 26.3267V25.8267H85.6392V26.3267H86.1392ZM86.1392 34.2244H85.6392V34.7244H86.1392V34.2244ZM98.2273 34.2244H98.7273V33.7244H98.2273V34.2244ZM98.2273 38.642V39.142H98.7273V38.642H98.2273ZM86.1392 38.642V38.142H85.6392V38.642H86.1392ZM86.1392 51V51.5H86.6392V51H86.1392ZM81.3693 51V21.9091H80.3693V51H81.3693ZM80.8693 22.4091H99.5057V21.4091H80.8693V22.4091ZM99.0057 21.9091V26.3267H100.006V21.9091H99.0057ZM99.5057 25.8267H86.1392V26.8267H99.5057V25.8267ZM85.6392 26.3267V34.2244H86.6392V26.3267H85.6392ZM86.1392 34.7244H98.2273V33.7244H86.1392V34.7244ZM97.7273 34.2244V38.642H98.7273V34.2244H97.7273ZM98.2273 38.142H86.1392V39.142H98.2273V38.142ZM85.6392 38.642V51H86.6392V38.642H85.6392ZM86.1392 50.5H80.8693V51.5H86.1392V50.5Z" fill="#3D3D3D" fill-opacity="0.23" mask="url(#path-6-outside-3_412_230)"/>
</g>
<g filter="url(#filter4_di_412_230)">
<mask id="path-8-outside-4_412_230" maskUnits="userSpaceOnUse" x="100" y="37" width="6" height="24" fill="black">
<rect fill="white" x="100" y="37" width="6" height="24"/>
<path d="M105.104 38.1818V60H101.152V38.1818H105.104Z"/>
</mask>
<path d="M105.104 38.1818V60H101.152V38.1818H105.104Z" fill="white" shape-rendering="crispEdges"/>
<path d="M105.104 38.1818H105.604V37.6818H105.104V38.1818ZM105.104 60V60.5H105.604V60H105.104ZM101.152 60H100.652V60.5H101.152V60ZM101.152 38.1818V37.6818H100.652V38.1818H101.152ZM104.604 38.1818V60H105.604V38.1818H104.604ZM105.104 59.5H101.152V60.5H105.104V59.5ZM101.652 60V38.1818H100.652V60H101.652ZM101.152 38.6818H105.104V37.6818H101.152V38.6818Z" fill="#3D3D3D" fill-opacity="0.23" mask="url(#path-8-outside-4_412_230)"/>
</g>
<defs>
<filter id="filter0_d_412_230" x="0" y="0" width="138" height="95" filterUnits="userSpaceOnUse" color-interpolation-filters="sRGB">
<feFlood flood-opacity="0" result="BackgroundImageFix"/>
<feColorMatrix in="SourceAlpha" type="matrix" values="0 0 0 0 0 0 0 0 0 0 0 0 0 0 0 0 0 0 127 0" result="hardAlpha"/>
<feOffset dy="4"/>
<feGaussianBlur stdDeviation="2"/>
<feComposite in2="hardAlpha" operator="out"/>
<feColorMatrix type="matrix" values="0 0 0 0 0 0 0 0 0 0 0 0 0 0 0 0 0 0 0.25 0"/>
<feBlend mode="normal" in2="BackgroundImageFix" result="effect1_dropShadow_412_230"/>
<feBlend mode="normal" in="SourceGraphic" in2="effect1_dropShadow_412_230" result="shape"/>
</filter>
<filter id="filter1_di_412_230" x="29.8693" y="17.9091" width="26.0824" height="41.0909" filterUnits="userSpaceOnUse" color-interpolation-filters="sRGB">
<feFlood flood-opacity="0" result="BackgroundImageFix"/>
<feColorMatrix in="SourceAlpha" type="matrix" values="0 0 0 0 0 0 0 0 0 0 0 0 0 0 0 0 0 0 127 0" result="hardAlpha"/>
<feOffset dy="4"/>
<feGaussianBlur stdDeviation="2"/>
<feComposite in2="hardAlpha" operator="out"/>
<feColorMatrix type="matrix" values="0 0 0 0 0 0 0 0 0 0 0 0 0 0 0 0 0 0 0.25 0"/>
<feBlend mode="normal" in2="BackgroundImageFix" result="effect1_dropShadow_412_230"/>
<feBlend mode="normal" in="SourceGraphic" in2="effect1_dropShadow_412_230" result="shape"/>
<feColorMatrix in="SourceAlpha" type="matrix" values="0 0 0 0 0 0 0 0 0 0 0 0 0 0 0 0 0 0 127 0" result="hardAlpha"/>
<feOffset dy="-11"/>
<feGaussianBlur stdDeviation="2"/>
<feComposite in2="hardAlpha" operator="arithmetic" k2="-1" k3="1"/>
<feColorMatrix type="matrix" values="0 0 0 0 1 0 0 0 0 0.958333 0 0 0 0 0.958333 0 0 0 0.25 0"/>
<feBlend mode="normal" in2="shape" result="effect2_innerShadow_412_230"/>
</filter>
<filter id="filter2_di_412_230" x="51.598" y="33.8835" width="28.0497" height="34.4147" filterUnits="userSpaceOnUse" color-interpolation-filters="sRGB">
<feFlood flood-opacity="0" result="BackgroundImageFix"/>
<feColorMatrix in="SourceAlpha" type="matrix" values="0 0 0 0 0 0 0 0 0 0 0 0 0 0 0 0 0 0 127 0" result="hardAlpha"/>
<feOffset dy="4"/>
<feGaussianBlur stdDeviation="2"/>
<feComposite in2="hardAlpha" operator="out"/>
<feColorMatrix type="matrix" values="0 0 0 0 0 0 0 0 0 0 0 0 0 0 0 0 0 0 0.25 0"/>
<feBlend mode="normal" in2="BackgroundImageFix" result="effect1_dropShadow_412_230"/>
<feBlend mode="normal" in="SourceGraphic" in2="effect1_dropShadow_412_230" result="shape"/>
<feColorMatrix in="SourceAlpha" type="matrix" values="0 0 0 0 0 0 0 0 0 0 0 0 0 0 0 0 0 0 127 0" result="hardAlpha"/>
<feOffset dy="-11"/>
<feGaussianBlur stdDeviation="2"/>
<feComposite in2="hardAlpha" operator="arithmetic" k2="-1" k3="1"/>
<feColorMatrix type="matrix" values="0 0 0 0 1 0 0 0 0 0.958333 0 0 0 0 0.958333 0 0 0 0.25 0"/>
<feBlend mode="normal" in2="shape" result="effect2_innerShadow_412_230"/>
</filter>
<filter id="filter3_di_412_230" x="76.8693" y="17.9091" width="26.6364" height="41.0909" filterUnits="userSpaceOnUse" color-interpolation-filters="sRGB">
<feFlood flood-opacity="0" result="BackgroundImageFix"/>
<feColorMatrix in="SourceAlpha" type="matrix" values="0 0 0 0 0 0 0 0 0 0 0 0 0 0 0 0 0 0 127 0" result="hardAlpha"/>
<feOffset dy="4"/>
<feGaussianBlur stdDeviation="2"/>
<feComposite in2="hardAlpha" operator="out"/>
<feColorMatrix type="matrix" values="0 0 0 0 0 0 0 0 0 0 0 0 0 0 0 0 0 0 0.25 0"/>
<feBlend mode="normal" in2="BackgroundImageFix" result="effect1_dropShadow_412_230"/>
<feBlend mode="normal" in="SourceGraphic" in2="effect1_dropShadow_412_230" result="shape"/>
<feColorMatrix in="SourceAlpha" type="matrix" values="0 0 0 0 0 0 0 0 0 0 0 0 0 0 0 0 0 0 127 0" result="hardAlpha"/>
<feOffset dy="-11"/>
<feGaussianBlur stdDeviation="2"/>
<feComposite in2="hardAlpha" operator="arithmetic" k2="-1" k3="1"/>
<feColorMatrix type="matrix" values="0 0 0 0 1 0 0 0 0 0.958333 0 0 0 0 0.958333 0 0 0 0.25 0"/>
<feBlend mode="normal" in2="shape" result="effect2_innerShadow_412_230"/>
</filter>
<filter id="filter4_di_412_230" x="97.152" y="34.1818" width="11.9525" height="33.8182" filterUnits="userSpaceOnUse" color-interpolation-filters="sRGB">
<feFlood flood-opacity="0" result="BackgroundImageFix"/>
<feColorMatrix in="SourceAlpha" type="matrix" values="0 0 0 0 0 0 0 0 0 0 0 0 0 0 0 0 0 0 127 0" result="hardAlpha"/>
<feOffset dy="4"/>
<feGaussianBlur stdDeviation="2"/>
<feComposite in2="hardAlpha" operator="out"/>
<feColorMatrix type="matrix" values="0 0 0 0 0 0 0 0 0 0 0 0 0 0 0 0 0 0 0.25 0"/>
<feBlend mode="normal" in2="BackgroundImageFix" result="effect1_dropShadow_412_230"/>
<feBlend mode="normal" in="SourceGraphic" in2="effect1_dropShadow_412_230" result="shape"/>
<feColorMatrix in="SourceAlpha" type="matrix" values="0 0 0 0 0 0 0 0 0 0 0 0 0 0 0 0 0 0 127 0" result="hardAlpha"/>
<feOffset dy="-11"/>
<feGaussianBlur stdDeviation="2"/>
<feComposite in2="hardAlpha" operator="arithmetic" k2="-1" k3="1"/>
<feColorMatrix type="matrix" values="0 0 0 0 1 0 0 0 0 0.958333 0 0 0 0 0.958333 0 0 0 0.25 0"/>
<feBlend mode="normal" in2="shape" result="effect2_innerShadow_412_230"/>
</filter>
</defs>
</svg>
