<?xml version="1.0" encoding="UTF-8"?>
<!-- Generator: visioncortex VTracer 0.6.3 -->
<svg version="1.1" xmlns="http://www.w3.org/2000/svg" width="1280" height="1280">
<path d="M0 0 C41.25 0 82.5 0 125 0 C125 1.65 125 3.3 125 5 C125.79 5.09 126.58 5.17 127.4 5.26 C131 5.65 134.59 6.04 138.19 6.44 C139.43 6.57 140.68 6.71 141.96 6.85 C143.16 6.98 144.37 7.11 145.61 7.25 C146.71 7.37 147.82 7.49 148.95 7.61 C151.67 7.96 154.32 8.42 157 9 C157 9.66 157 10.32 157 11 C158.49 10.5 158.49 10.5 160 10 C161.26 11.14 161.26 11.14 162.54 12.29 C166.6 15.93 171.13 16.45 176.38 17.31 C177.3 17.48 178.23 17.65 179.18 17.82 C181.45 18.23 183.72 18.62 186 19 C186 19.66 186 20.32 186 21 C188.47 21.49 188.47 21.49 191 22 C191.33 22.99 191.66 23.98 192 25 C192.63 25.04 193.26 25.07 193.91 25.11 C200.59 25.63 205.97 26.98 212 30 C212.31 30.78 212.62 31.57 212.94 32.38 C215.85 36.09 219.01 36.4 223.5 37.42 C226 38 226 38 228 39 C228 39.66 228 40.32 228 41 C228.58 41.08 229.15 41.16 229.75 41.25 C232 42 232 42 233.81 43.94 C236.63 46.6 239.29 47.04 243 48 C243.66 48.66 244.32 49.32 245 50 C249.18 53.71 253.35 57.34 259.03 58.37 C261.55 59.18 262.04 60.13 263.38 62.38 C265.75 65.98 268.07 67.16 272 69 C276 73.32 276 73.32 276 76 C276.72 76.06 277.44 76.12 278.19 76.19 C282.93 77.56 285.34 81.01 288 85 C289.42 85.65 289.42 85.65 290.88 86.31 C294.63 88.34 295.67 90.47 298 94 C299.69 95.32 299.69 95.32 301.56 96.5 C305.07 98.81 306.19 101.21 308 105 C309.65 106.03 311.32 107.03 313 108 C314.63 110.5 314.63 110.5 316 113 C317.37 114.54 317.37 114.54 319 116 C321.84 118.62 323.82 120.62 325.5 124.12 C327.25 127.47 328.78 128.19 332 130 C333.71 132.65 335 135.79 335 139 C337.53 141.09 340.12 143.08 342.71 145.09 C345 147 345 147 346 149 C346.61 148.94 347.23 148.88 347.86 148.82 C364.28 147.26 380.58 146.8 397.06 146.81 C398.01 146.81 398.95 146.81 399.93 146.81 C445.57 146.81 445.57 146.81 451.57 151.13 C457.09 155 461.94 156.01 468.56 156.69 C484 158.45 484 158.45 487.94 161.5 C489 163 489 163 489 165 C494.94 166.32 500.88 167.64 507 169 C507 169.66 507 170.32 507 171 C507.56 171.08 508.11 171.16 508.69 171.25 C511 172 511 172 513.31 174 C515.89 176.26 515.89 176.26 519.31 176.44 C524.84 177.28 529.12 180 532.94 184.06 C535.1 186.09 536.72 186.82 539.44 187.94 C543.55 189.64 545.92 191.75 549 195 C550.99 196.02 552.99 197.02 555 198 C557.66 199.96 560.15 202.1 562.43 204.51 C564.16 206.15 565.92 207.2 568 208.38 C571.56 210.53 572.86 212.44 575 216 C576.28 216.86 577.6 217.67 578.94 218.44 C582.85 220.71 584.56 223.17 587 227 C588.01 227.66 589.02 228.32 590.06 229 C593.49 231.33 594.21 233.34 596 237 C596.87 237.52 597.73 238.03 598.62 238.56 C601 240 601 240 601.81 242.69 C601.87 243.45 601.94 244.21 602 245 C602.99 245.33 603.98 245.66 605 246 C605.67 247.33 606.33 248.67 607 250 C607.78 250.76 608.57 251.53 609.38 252.31 C613.04 256.07 615.33 259.99 617 265 C617.91 265.66 618.82 266.32 619.75 267 C624.96 271.1 626.96 277.89 629 284 C629.66 284 630.32 284 631 284 C631.33 285.98 631.66 287.96 632 290 C632.66 290 633.32 290 634 290 C634.66 291.98 635.32 293.96 636 296 C636.97 295.98 637.94 295.96 638.94 295.94 C642 296 642 296 643 297 C645 297.21 647 297.37 649 297.5 C654.36 297.87 659.67 298.37 665 299 C665 299.66 665 300.32 665 301 C665.56 301.1 666.11 301.21 666.69 301.31 C669 302 669 302 671.31 303.44 C674.44 305.26 677.5 306.11 681 307 C681.33 306.34 681.66 305.68 682 305 C687 306.67 692 308.33 697 310 C697 310.66 697 311.32 697 312 C702.98 315.24 709.47 317.23 716 319 C716 319.66 716 320.32 716 321 C716.54 321.25 717.07 321.5 717.62 321.75 C720 323 720 323 722.75 324.88 C725.85 326.9 728.89 328.41 732.27 329.88 C734 331 734 331 735 333.01 C736.26 335.51 737.26 335.85 739.81 336.88 C742.81 338.24 744.67 339.45 746.69 342.06 C748.73 345.03 748.73 345.03 751.26 346.31 C754.72 348.44 757.34 351.05 760.19 353.94 C760.72 354.46 761.25 354.99 761.8 355.53 C764.46 358.2 766.42 360.59 768 364 C768.8 364.45 769.61 364.91 770.44 365.38 C773.71 367.45 774.59 369.44 776 373 C776 373.99 776 374.98 776 376 C777.14 376.37 777.14 376.37 778.31 376.75 C783.24 379.04 784.76 383.37 786.94 388.1 C788.06 390.11 789.36 391.4 791 393 C791.7 394.65 792.37 396.32 793 398 C793.66 398.99 794.32 399.98 795 401 C795.29 402.13 795.58 403.27 795.88 404.44 C796.66 408.01 796.66 408.01 799 409.71 C801.78 412.89 801.79 416.08 802.06 420.12 C802.25 422.81 802.56 425.34 803 428 C803.99 428.66 804.98 429.32 806 430 C806.69 433.13 806.69 433.13 807 436 C808.65 436 810.3 436 812 436 C812 471.31 812 506.62 812 543 C810.35 543.33 808.7 543.66 807 544 C806.71 544.97 806.42 545.94 806.12 546.94 C805 550 805 550 803 551 C802.57 553.19 802.57 553.19 802.44 555.75 C802.36 556.65 802.28 557.56 802.2 558.49 C802.14 559.32 802.07 560.15 802 561 C801.51 565.53 801.51 565.53 799.07 567.77 C796.64 570.39 796.09 572.32 795.19 575.75 C793.09 582.54 789.73 587.45 783.83 591.48 C781.6 593.01 781.6 593.01 781.25 596.69 C781.17 597.78 781.09 598.87 781 600 C780.22 600.19 779.43 600.37 778.62 600.56 C775.63 601.81 775.63 601.81 774.94 605.38 C774.63 606.57 774.32 607.77 774 609 C771.69 611.83 770.48 612.84 767 614 C765.77 615.8 765.77 615.8 764.69 617.94 C762.31 622.02 760.5 622.6 756 624 C754.83 626.93 754.83 626.93 754 630 C751.76 632.24 750.52 632.93 747.38 633.38 C746.59 633.58 745.81 633.79 745 634 C744.73 634.74 744.46 635.49 744.19 636.25 C742.6 639.93 740.42 640.8 737.01 642.73 C734.74 644.04 734.74 644.04 732.5 646.75 C729.02 649.88 726.6 649.77 722 650 C722 650.99 722 651.98 722 653 C721.07 653.25 720.14 653.5 719.19 653.75 C715.93 654.7 715.93 654.7 714.44 657.12 C713.73 658.05 713.73 658.05 713 659 C710.31 659.25 710.31 659.25 708 659 C708.99 659.66 709.98 660.32 711 661 C710.43 661.11 709.86 661.22 709.28 661.33 C700.63 662.98 700.63 662.98 693.38 667.62 C690.72 670.28 687.04 670 683.45 670.1 C681.59 670.08 681.59 670.08 679.69 670.06 C678.43 670.05 677.18 670.04 675.89 670.04 C674.46 670.02 674.46 670.02 673 670 C672.67 671.32 672.34 672.64 672 674 C671.41 674.11 670.82 674.22 670.21 674.33 C665.48 675.28 662.14 676.49 658 679 C654.19 679.69 654.19 679.69 651 680 C651 680.33 651 680.66 651 681 C642.6 682.09 634.26 682.14 625.81 682.12 C624.27 682.12 622.73 682.12 621.2 682.13 C616.98 682.13 612.76 682.13 608.54 682.12 C603.95 682.12 599.36 682.12 594.77 682.12 C586.72 682.12 578.68 682.12 570.63 682.12 C558.67 682.11 546.71 682.11 534.75 682.11 C514.62 682.12 494.5 682.11 474.38 682.11 C454.45 682.1 434.53 682.1 414.6 682.09 C412.74 682.09 412.74 682.09 410.85 682.09 C404.56 682.09 398.27 682.09 391.97 682.09 C347.41 682.09 302.85 682.08 258.29 682.08 C247.49 682.07 236.69 682.07 225.89 682.07 C224.88 682.07 224.88 682.07 223.86 682.07 C192.72 682.06 161.57 682.06 130.43 682.06 C128.41 682.05 126.39 682.05 124.37 682.05 C110.96 682.05 97.56 682.05 84.16 682.05 C56.87 682.05 29.57 682.05 2.27 682.04 C1.02 682.04 -0.24 682.04 -1.53 682.04 C-85.36 682.03 -169.18 682.02 -253 682 C-253 681.67 -253 681.34 -253 681 C-254.85 680.98 -254.85 680.98 -256.73 680.96 C-265.7 680.74 -272.92 680.22 -281.09 676.2 C-285.55 674.36 -290.09 674.05 -294.87 673.65 C-298.52 672.89 -300.3 671.51 -303 669 C-303.33 669.33 -303.66 669.66 -304 670 C-307.66 670.14 -310.51 670.16 -314 669 C-314.66 668.88 -315.32 668.75 -316 668.62 C-318 668 -318 668 -319.25 666.56 C-322.48 663.67 -327.18 663.36 -331.35 662.54 C-337 661.39 -340.91 659.91 -345.25 655.94 C-347.98 654.02 -349.32 653.6 -352.5 653 C-356.59 652.23 -359.04 651.06 -362 648 C-362.5 646.51 -362.5 646.51 -363 645 C-365.13 644.12 -365.13 644.12 -367.69 643.56 C-372.22 642.32 -375.4 641.04 -379 638 C-379.13 637.33 -379.25 636.65 -379.38 635.96 C-379.58 635.31 -379.79 634.67 -380 634 C-381.99 633.04 -381.99 633.04 -384.38 632.56 C-388.76 631.29 -388.76 631.29 -391.06 628.44 C-392 626 -392 626 -392 624 C-392.72 623.94 -393.44 623.88 -394.19 623.81 C-397.9 622.74 -399.51 620.9 -402 618 C-402.5 616.51 -402.5 616.51 -403 615 C-404.42 614.29 -404.42 614.29 -405.88 613.56 C-410.13 611.44 -411.52 609.45 -413 605 C-413.93 604.42 -414.86 603.85 -415.81 603.25 C-418.79 601.15 -419.51 600.46 -421.06 597.44 C-422.65 593.92 -422.65 593.92 -425.43 592.63 C-428.59 590.63 -429.5 588.78 -431.12 585.44 C-433.25 581.04 -433.25 581.04 -437 578 C-437.69 575.38 -437.69 575.38 -438 573 C-438.66 573 -439.32 573 -440 573 C-440.16 572.32 -440.32 571.65 -440.48 570.95 C-442.01 565.11 -443.18 562.74 -448 559 C-450.43 553.93 -451.43 548.37 -452.28 542.85 C-452.52 542.24 -452.75 541.63 -453 541 C-453.93 540.6 -453.93 540.6 -454.88 540.18 C-458.16 538.35 -458.97 535.44 -460 532 C-460.72 528.71 -461.22 525.4 -461.69 522.06 C-461.82 521.19 -461.95 520.31 -462.08 519.41 C-462.4 517.28 -462.7 515.14 -463 513 C-464.65 512.67 -466.3 512.34 -468 512 C-468 471.74 -468 431.48 -468 390 C-466.35 389.67 -464.7 389.34 -463 389 C-462.88 388.19 -462.76 387.38 -462.63 386.54 C-462.28 384.23 -461.92 381.91 -461.55 379.6 C-461.21 377.37 -460.9 375.14 -460.63 372.9 C-459.85 367.11 -458.89 364.18 -454.4 360.41 C-451.94 357.94 -451.58 355.38 -451 352 C-451.33 351.34 -451.66 350.68 -452 350 C-451.67 349.34 -451.34 348.68 -451 348 C-450.34 348 -449.68 348 -449 348 C-448.92 346.89 -448.83 345.77 -448.75 344.62 C-448.5 343.43 -448.25 342.23 -448 341 C-446.13 339.94 -446.13 339.94 -444 339 C-441.65 335.22 -440.61 332.45 -441 328 C-440.34 328 -439.68 328 -439 328 C-438.67 327.01 -438.34 326.02 -438 325 C-437.34 325 -436.68 325 -436 325 C-434.74 323.42 -434.74 323.42 -433.56 321.38 C-432.9 320.28 -432.9 320.28 -432.22 319.16 C-430.88 316.86 -430.88 316.86 -429.56 313.75 C-427.62 310.32 -425.25 309.17 -422 307 C-420.97 305.02 -419.97 303.02 -419 301 C-416.5 298.81 -416.5 298.81 -414 297 C-411.99 295.22 -410.95 293.91 -409.69 291.5 C-408 289 -408 289 -405.06 287.56 C-401.32 285.65 -400.25 283.48 -398 280 C-396.36 278.95 -394.7 277.95 -393 277 C-392.26 276.24 -391.51 275.47 -390.75 274.69 C-387.75 271.76 -384.62 269.66 -381.09 267.43 C-378.18 265.44 -376.19 263.24 -374 260.5 C-370.86 257.89 -369.25 257.4 -365.38 256.5 C-361.09 255.68 -361.09 255.68 -358.38 252.5 C-357.92 251.68 -357.47 250.85 -357 250 C-354.12 248.62 -351.08 247.84 -348 247 C-346.33 246.49 -344.66 245.97 -343 245.44 C-342.26 245.21 -341.51 244.98 -340.75 244.75 C-338.8 244.14 -338.8 244.14 -338 242 C-338.66 241.34 -339.32 240.68 -340 240 C-336.5 239.3 -333 238.6 -329.5 237.94 C-328.12 237.67 -328.12 237.67 -326.72 237.4 C-324.1 237.01 -321.64 236.93 -319 237 C-318.67 236.34 -318.34 235.68 -318 235 C-317.11 234.9 -316.23 234.79 -315.31 234.69 C-311.82 234.26 -311.82 234.26 -309.29 231.53 C-305.85 228.56 -302.44 228.08 -298 227.78 C-297.25 227.71 -296.5 227.63 -295.73 227.56 C-293.34 227.33 -290.95 227.13 -288.56 226.94 C-286.18 226.74 -283.79 226.53 -281.41 226.31 C-279.93 226.17 -278.45 226.04 -276.98 225.93 C-271.64 225.44 -268.36 223.94 -264 221 C-261.68 217.52 -260.72 213.99 -259.62 210 C-258.68 206.66 -257.78 204.38 -255.44 201.81 C-252.66 198.6 -251.8 196.14 -251 192 C-251.33 191.34 -251.66 190.68 -252 190 C-251.34 190 -250.68 190 -250 190 C-249.87 189.08 -249.87 189.08 -249.74 188.14 C-249.31 185.66 -248.84 183.37 -248 181 C-245.5 179.38 -245.5 179.38 -243 178 C-241.53 174.52 -241.53 174.52 -241 171 C-241.33 170.34 -241.66 169.68 -242 169 C-241.53 168.57 -241.05 168.13 -240.56 167.69 C-238.76 165.98 -238.76 165.98 -238 163 C-237.22 162.79 -236.43 162.59 -235.62 162.38 C-232.88 161.29 -232.88 161.29 -232.14 159.05 C-231.67 157.46 -231.2 155.86 -230.75 154.26 C-229.3 149.89 -226.74 147.49 -223 145 C-222.94 143.99 -222.88 142.98 -222.81 141.94 C-222.23 135.76 -216.6 131.5 -212.36 127.43 C-210.76 125.85 -210.76 125.85 -209.12 122.94 C-207 120 -207 120 -204.38 119 C-203.2 118.5 -203.2 118.5 -202 118 C-201.27 116.02 -200.61 114.02 -200 112 C-198.1 109.72 -196.68 108.29 -193.94 107.12 C-191.07 105.46 -190.43 102.92 -189 100 C-186.63 97.85 -185.06 97.02 -182 96 C-181.61 95.09 -181.22 94.19 -180.81 93.25 C-178.65 89.37 -176.6 88.35 -172.84 86.21 C-170.78 85.05 -170.78 85.05 -169.5 82.5 C-167.54 79.24 -165.16 78.14 -161.92 76.26 C-159.37 74.59 -157.84 72.41 -156 70 C-151.66 67 -151.66 67 -149 67 C-149 66.01 -149 65.02 -149 64 C-147.35 63.67 -145.7 63.34 -144 63 C-143.94 62.38 -143.88 61.76 -143.81 61.12 C-143 59 -143 59 -140.88 57.88 C-138.71 57.22 -136.52 56.65 -134.31 56.12 C-130.96 55.33 -130.96 55.33 -129.5 53 C-128.76 50.95 -128.76 50.95 -130 49 C-129.11 48.88 -128.23 48.75 -127.31 48.62 C-123.13 47.84 -120.04 47.04 -117 44 C-117 44.66 -117 45.32 -117 46 C-115.05 45.81 -115.05 45.81 -113 45 C-111.61 43.13 -111.61 43.13 -111 41 C-111.33 40.34 -111.66 39.68 -112 39 C-111.2 38.82 -110.41 38.64 -109.59 38.45 C-101.45 36.62 -101.45 36.62 -94 33 C-93.67 32.01 -93.34 31.02 -93 30 C-89.91 28.9 -89.91 28.9 -86.06 27.94 C-81.03 26.86 -81.03 26.86 -77 24 C-77 24.66 -77 25.32 -77 26 C-73.66 24.92 -71.82 23.84 -69.19 21.44 C-65.7 18.33 -62.56 18.39 -58 18 C-57.67 17.34 -57.34 16.68 -57 16 C-54.67 15.76 -54.67 15.76 -51.75 15.69 C-46.75 15.34 -46.75 15.34 -42.81 12.5 C-40.9 10.38 -40.9 10.38 -41 9 C-27.47 7.68 -13.94 6.36 0 5 C0 3.35 0 1.7 0 0 Z M725 646 C729 647 729 647 729 647 Z M-337 658 C-337.33 658.66 -337.66 659.32 -338 660 C-336.68 660 -335.36 660 -334 660 C-334.33 659.34 -334.66 658.68 -335 658 C-335.66 658 -336.32 658 -337 658 Z M702 659 C703 662 703 662 703 662 Z M-334 660 C-330 661 -330 661 -330 661 Z " fill="#FCFCFC" transform="translate(468,0)"/>
<path d="M0 0 C3.11 1.52 6.13 3.15 9.12 4.88 C9.99 5.37 10.86 5.86 11.76 6.37 C14.73 8.53 15.69 10.52 16.44 14.06 C16.85 16.1 16.85 16.1 18.5 17.44 C20 19 20 19 20.38 21.56 C20.68 22.77 20.68 22.77 21 24 C21.76 24.25 22.53 24.49 23.31 24.75 C27.09 26.51 27.48 28.87 28.96 32.62 C30.81 36.86 33.6 40.45 36.69 43.88 C38.14 46.22 38.41 47.92 38.88 50.62 C39.27 52.97 39.27 52.97 40 55 C42.45 56.53 42.45 56.53 45 57 C46 59 46 59 46 60 C46.66 60.66 47.32 61.32 48 62 C48.75 65.07 49.34 68.15 49.93 71.25 C50.72 74.22 50.72 74.22 53.5 75.13 C54.32 75.42 55.15 75.71 56 76 C57.11 77.8 57.11 77.8 57.75 79.88 C57.97 80.55 58.19 81.23 58.42 81.93 C59.23 84.84 59.95 87.62 60.31 90.62 C60.54 91.41 60.77 92.19 61 93 C62.32 93.7 63.65 94.37 65 95 C68.35 99.52 68.96 104.32 69.73 109.74 C70.06 111.94 70.06 111.94 71 115 C72.95 116.34 72.95 116.34 75 117 C76.12 119.69 76.12 119.69 77 123 C77.56 124.7 77.56 124.7 78.12 126.44 C79.03 130.11 79.23 133.23 79 137 C78.67 137.33 78.34 137.66 78 138 C78.66 138.99 79.32 139.98 80 141 C81.35 149.09 81.02 156.71 79.54 164.74 C78.78 169.31 78.57 173.89 78.34 178.52 C78.23 179.34 78.12 180.16 78 181 C77.34 181.33 76.68 181.66 76 182 C75.85 183.11 75.85 183.11 75.69 184.25 C75 187 75 187 72.62 189.31 C70.11 191.89 69.54 192.87 68.5 196.12 C67.19 200.08 65.7 201.02 62 203 C60.64 204.98 59.3 206.98 58 209 C55.59 211.12 54.07 211.98 51 213 C49.3 215.5 49.3 215.5 48 218 C44.7 217.67 41.4 217.34 38 217 C37.73 217.8 37.46 218.61 37.19 219.44 C36.8 220.28 36.4 221.13 36 222 C35.01 222.33 34.02 222.66 33 223 C33 224.65 33 226.3 33 228 C13.53 228 -5.94 228 -26 228 C-26 226.35 -26 224.7 -26 223 C-27.32 222.73 -27.32 222.73 -28.67 222.45 C-29.83 222.2 -30.99 221.95 -32.19 221.69 C-33.34 221.44 -34.48 221.2 -35.67 220.95 C-38.96 220.01 -41.27 219.04 -44 217 C-44.69 215.68 -45.36 214.35 -46 213 C-47.83 211.64 -47.83 211.64 -49.94 210.56 C-53.53 208.44 -55.04 206.74 -57 203 C-60.45 198.36 -60.45 198.36 -65 195 C-66.61 191.11 -67.9 187.39 -68.94 183.31 C-69.79 179.95 -69.79 179.95 -72 177.56 C-77.46 170.57 -76.3 160.9 -76.25 152.5 C-76.26 151.22 -76.27 149.94 -76.27 148.62 C-76.24 133.49 -76.24 133.49 -72.75 128.05 C-72.31 127.62 -71.88 127.19 -71.44 126.75 C-68.74 123.75 -68.74 123.75 -68 120 C-68.33 119.34 -68.66 118.68 -69 118 C-68.34 118 -67.68 118 -67 118 C-67.33 116.68 -67.66 115.36 -68 114 C-67.34 114 -66.68 114 -66 114 C-65.99 113.41 -65.97 112.82 -65.96 112.21 C-65.68 107.69 -65.55 105.61 -62.44 102.12 C-61.63 101.42 -60.83 100.72 -60 100 C-60 99.01 -60 98.02 -60 97 C-59.01 96.51 -59.01 96.51 -58 96 C-56.97 92.76 -56.14 89.49 -55.29 86.2 C-53.81 82.54 -52.24 81.17 -49 79 C-49.5 78.01 -49.5 78.01 -50 77 C-49.01 76.51 -49.01 76.51 -48 76 C-47.23 73.21 -46.65 70.4 -46.07 67.57 C-45 65 -45 65 -42.45 63.85 C-41.64 63.57 -40.83 63.29 -40 63 C-39.1 59.95 -39.1 59.95 -39 57 C-38.34 57 -37.68 57 -37 57 C-36.34 53.37 -35.68 49.74 -35 46 C-34.34 46.66 -33.68 47.32 -33 48 C-29.51 45.13 -27.71 43.16 -27.19 38.69 C-27.13 37.47 -27.06 36.25 -27 35 C-26.34 35 -25.68 35 -25 35 C-24.77 34.26 -24.55 33.52 -24.31 32.75 C-23 30 -23 30 -20.56 28.31 C-17.68 25.71 -17.42 24.54 -16.5 20.88 C-15.82 18.2 -15.82 18.2 -15 16 C-12.44 14.75 -12.44 14.75 -10 14 C-8.88 11.15 -8.88 11.15 -8 8 C-5.69 4.69 -3.34 2.27 0 0 Z M12 8 C13 10 13 10 13 10 Z M55 79 C54.67 79.99 54.34 80.98 54 82 C54.66 82 55.32 82 56 82 C55.67 81.01 55.34 80.02 55 79 Z M75 123 C73.47 126.07 74.45 128.7 75 132 C75.33 132 75.66 132 76 132 C76 129.03 76 126.06 76 123 C75.67 123 75.34 123 75 123 Z M75 133 C76 135 76 135 76 135 Z M76 168 C75.67 169.32 75.34 170.64 75 172 C75.99 171.01 76.98 170.02 78 169 C77.34 168.67 76.68 168.34 76 168 Z M74 173 C74 175.31 74 177.62 74 180 C74.33 180 74.66 180 75 180 C75 177.69 75 175.38 75 173 C74.67 173 74.34 173 74 173 Z M-40 216 C-40.33 216.66 -40.66 217.32 -41 218 C-40.34 218 -39.68 218 -39 218 C-39.33 217.34 -39.66 216.68 -40 216 Z " fill="#FBFBFB" transform="translate(864,1052)"/>
<path d="M0 0 C1.98 0.66 3.96 1.32 6 2 C6 2.66 6 3.32 6 4 C7.08 4.4 7.08 4.4 8.19 4.81 C15.27 7.8 17.66 11.17 21 18 C20.5 18.49 20.5 18.49 20 19 C20.66 19.33 21.32 19.66 22 20 C22.4 21.14 22.4 21.14 22.81 22.31 C23.8 25.17 23.8 25.17 26.44 26.69 C29.3 29.27 29.57 30.38 30.5 34 C31.7 38.64 33.04 40.2 37 43 C39.33 46.22 40.83 49.46 42 53.25 C42.74 56.08 42.74 56.08 44.88 57.38 C49.08 60.59 50.69 65.75 51.94 70.75 C53.22 74.68 54.81 75.51 58 78 C60.34 82.69 61.79 86.94 62.31 92.12 C62.65 93.55 62.65 93.55 63 95 C64.88 96.11 64.88 96.11 67 97 C70.04 100.94 71 105.03 71 110 C71.69 113.5 71.69 113.5 73 117 C74.32 117.68 75.66 118.35 77 119 C80.46 124.9 80.96 131.23 81 138 C80.67 138.33 80.34 138.66 80 139 C80.33 139 80.66 139 81 139 C81.96 143.86 82.18 148.51 82.19 153.44 C82.2 154.16 82.21 154.89 82.22 155.63 C82.24 160.46 81.53 164.42 80 169 C79.34 169 78.68 169 78 169 C76.56 173.33 76.21 178.66 77.68 183.01 C78 185 78 185 76.89 186.89 C76.35 187.53 75.81 188.16 75.25 188.81 C73.15 191.41 71.53 193.7 70.31 196.81 C69.14 199.66 68.48 201.24 66 203 C65.01 203 64.02 203 63 203 C62.66 204.36 62.66 204.36 62.31 205.75 C60.8 209.5 59.34 210.8 56 213 C55.01 213.33 54.02 213.66 53 214 C52.46 214.87 51.93 215.73 51.38 216.62 C49 219 49 219 46.74 219.11 C44.46 218.84 42.24 218.48 40 218 C39.73 218.8 39.46 219.61 39.19 220.44 C38.8 221.28 38.4 222.13 38 223 C37.01 223.33 36.02 223.66 35 224 C35 225.65 35 227.3 35 229 C15.2 229 -4.6 229 -25 229 C-25.5 226.53 -25.5 226.53 -26 224 C-26.8 223.73 -27.61 223.46 -28.44 223.19 C-30.2 222.6 -30.2 222.6 -32 222 C-32.76 221.78 -33.52 221.56 -34.3 221.34 C-40.52 219.48 -40.52 219.48 -43.06 216.94 C-44 215 -44 215 -44 213 C-44.91 212.75 -45.81 212.51 -46.75 212.25 C-50.22 210.91 -51.73 209.91 -54 207 C-54.5 205.42 -54.5 205.42 -55 203.81 C-55.5 202.42 -55.5 202.42 -56 201 C-57.33 200.65 -58.66 200.31 -60 200 C-63.53 195.43 -65.49 191.06 -66.88 185.5 C-67.78 181.97 -67.78 181.97 -70 179.5 C-74.01 174.49 -74.41 168.17 -74.75 161.94 C-74.79 161.18 -74.84 160.42 -74.88 159.64 C-75.29 149.71 -74.13 139.85 -73 130 C-72.34 130 -71.68 130 -71 130 C-70.34 128.68 -69.68 127.36 -69 126 C-68.34 126 -67.68 126 -67 126 C-67.09 124.3 -67.09 124.3 -67.19 122.56 C-67.2 117.64 -65.77 113.55 -64 109 C-63.61 107.99 -63.22 106.98 -62.81 105.94 C-62.54 105.3 -62.28 104.66 -62 104 C-61.34 104 -60.68 104 -60 104 C-56.27 97.36 -56.27 97.36 -55.19 90.06 C-54.9 85.36 -52.13 82.38 -49 79 C-47.51 78.01 -47.51 78.01 -46 77 C-45.17 74.72 -45.17 74.72 -44.62 72.12 C-43.38 67.52 -42.04 65.69 -38 63 C-36.69 60.88 -36.69 60.88 -36 59 C-36.99 58.51 -36.99 58.51 -38 58 C-37.01 58 -36.02 58 -35 58 C-34.34 54.04 -33.68 50.08 -33 46 C-32.34 46.66 -31.68 47.32 -31 48 C-26.23 44.87 -25.06 42.22 -23.69 36.75 C-23.36 35.49 -23.04 34.22 -22.7 32.92 C-22.47 31.96 -22.24 30.99 -22 30 C-21.37 29.88 -20.74 29.76 -20.1 29.63 C-17.8 29.17 -17.8 29.17 -16.44 26.88 C-14.9 23.92 -14.9 23.92 -13.62 20.38 C-11.81 16.6 -10.54 15.96 -7 14 C-6.02 12.01 -6.02 12.01 -6 10 C-6.5 9.01 -6.5 9.01 -7 8 C-6.22 7.24 -5.43 6.47 -4.62 5.69 C-1.93 3.09 -1.93 3.09 0 0 Z M27 29 C27 30.65 27 32.3 27 34 C27.33 34 27.66 34 28 34 C28 32.35 28 30.7 28 29 C27.67 29 27.34 29 27 29 Z M57 80 C56.67 80.99 56.34 81.98 56 83 C56.66 83 57.32 83 58 83 C57.67 82.01 57.34 81.02 57 80 Z M77 124 C75.69 126.62 76.1 128.23 76.44 131.12 C76.54 132.04 76.64 132.95 76.75 133.88 C76.83 134.58 76.91 135.28 77 136 C77.33 136 77.66 136 78 136 C78 132.04 78 128.08 78 124 C77.67 124 77.34 124 77 124 Z M-38 217 C-38.33 217.66 -38.66 218.32 -39 219 C-38.34 219 -37.68 219 -37 219 C-37.33 218.34 -37.66 217.68 -38 217 Z " fill="#FBFBFB" transform="translate(412,1051)"/>
<path d="M0 0 C3.91 2.99 5.12 6.55 7 11 C8.58 13.14 10.12 15.12 12 17 C12 17.99 12 18.98 12 20 C12.66 20 13.32 20 14 20 C14.16 20.61 14.32 21.23 14.48 21.86 C15.86 27.1 15.86 27.1 19.56 30.81 C20.37 31.2 21.17 31.6 22 32 C23.87 34.81 24.56 37.66 25 41 C24.5 41.99 24.5 41.99 24 43 C24.56 43.21 25.11 43.41 25.69 43.62 C31.66 47.18 33.8 52.4 35.91 58.73 C37.19 61.4 38.59 62.34 41 64 C43.65 68.34 44.86 72.84 46.06 77.73 C46.84 80.16 46.84 80.16 49.1 81.55 C50.04 82.27 50.04 82.27 51 83 C51 84.32 51 85.64 51 87 C51.66 86.67 52.32 86.34 53 86 C53.16 86.8 53.32 87.59 53.48 88.41 C54.82 95.4 54.82 95.4 58.62 101.19 C61.81 104.96 61.88 108.19 62 113 C62.66 113 63.32 113 64 113 C64.25 113.96 64.51 114.93 64.77 115.92 C65.29 117.82 65.29 117.82 65.81 119.75 C66.15 121 66.49 122.26 66.83 123.55 C67.9 126.7 68.94 128.48 71 131 C71.69 133.75 71.69 133.75 72 136 C72.33 136 72.66 136 73 136 C74.37 145.09 74.37 153.91 73 163 C72.67 163 72.34 163 72 163 C71.92 164.05 71.84 165.1 71.75 166.19 C70.92 170.39 69.67 171.77 67 175 C66.12 177.32 65.57 179.58 65 182 C64.34 182 63.68 182 63 182 C63 182.66 63 183.32 63 184 C62.01 184.66 61.02 185.32 60 186 C60.4 187.33 60.4 187.33 60.81 188.69 C60.87 189.78 60.94 190.87 61 192 C58.88 194.38 58.88 194.38 56 197 C55.13 198.38 54.3 199.77 53.5 201.19 C51.4 204.73 49.92 205.66 46 207 C45.5 207.87 45.01 208.73 44.5 209.62 C43.76 210.8 43.76 210.8 43 212 C40.37 212.25 40.37 212.25 38 212 C37.67 212.33 37.34 212.66 37 213 C38.32 213.33 39.64 213.66 41 214 C40.36 214.15 39.72 214.29 39.06 214.45 C33.32 215.93 29.8 217.68 25.54 221.77 C24 223 24 223 21.06 223.38 C20.38 223.25 19.7 223.13 19 223 C19 223.66 19 224.32 19 225 C13.79 225.86 8.78 226.15 3.5 226.13 C2.71 226.13 1.92 226.13 1.1 226.14 C-0.56 226.14 -2.23 226.13 -3.9 226.13 C-6.43 226.13 -8.96 226.13 -11.49 226.14 C-13.11 226.14 -14.74 226.13 -16.37 226.13 C-17.12 226.13 -17.86 226.14 -18.63 226.14 C-23.5 226.12 -28.18 225.69 -33 225 C-33 224.67 -33 224.34 -33 224 C-34.39 223.63 -34.39 223.63 -35.81 223.25 C-39 222 -39 222 -40.31 220.06 C-42.32 217.61 -43.44 217.42 -46.44 216.56 C-50.76 215.28 -52.38 213.74 -55 210 C-56.66 208.98 -58.32 207.98 -60 207 C-60 206.34 -60 205.68 -60 205 C-60.66 204.67 -61.32 204.34 -62 204 C-62 203.34 -62 202.68 -62 202 C-62.62 202.21 -63.24 202.41 -63.88 202.62 C-64.58 202.75 -65.28 202.87 -66 203 C-66.66 202.34 -67.32 201.68 -68 201 C-68 199.68 -68 198.36 -68 197 C-68.66 196.67 -69.32 196.34 -70 196 C-71 194.64 -71.96 193.23 -72.88 191.81 C-73.37 191.06 -73.86 190.3 -74.37 189.52 C-74.91 188.69 -75.44 187.86 -76 187 C-76.68 186.12 -77.37 185.24 -78.07 184.33 C-80.61 179.95 -81.22 175.83 -82 170.88 C-83.23 163.69 -84.68 157.07 -87.36 150.28 C-88.1 147.65 -88.03 146.51 -87 144 C-86.52 143.43 -86.04 142.86 -85.54 142.27 C-83.31 138.98 -82.94 135.63 -82.31 131.75 C-82.18 131 -82.05 130.26 -81.92 129.49 C-81.6 127.66 -81.3 125.83 -81 124 C-81.66 123.67 -82.32 123.34 -83 123 C-82.01 123 -81.02 123 -80 123 C-79.98 121.88 -79.98 121.88 -79.96 120.73 C-79.56 112.55 -79.56 112.55 -76.56 109.62 C-75.72 109.09 -74.87 108.55 -74 108 C-72.67 105.38 -72.67 105.38 -72 103 C-72.66 102.67 -73.32 102.34 -74 102 C-73.01 102 -72.02 102 -71 102 C-70.9 101.16 -70.8 100.31 -70.7 99.45 C-70.55 98.35 -70.4 97.25 -70.25 96.12 C-70.11 95.03 -69.97 93.94 -69.83 92.82 C-69 90 -69 90 -67.03 88.78 C-66.36 88.52 -65.69 88.27 -65 88 C-63.25 85.47 -63.25 85.47 -62 83 C-62.66 82.67 -63.32 82.34 -64 82 C-63.01 82 -62.02 82 -61 82 C-60.01 76.06 -60.01 76.06 -59 70 C-56.03 69.5 -56.03 69.5 -53 69 C-53 66.69 -53 64.38 -53 62 C-52.34 62 -51.68 62 -51 62 C-50.69 60.76 -50.38 59.52 -50.06 58.25 C-49.38 55.5 -48.69 52.75 -48 50 C-47.67 50.66 -47.34 51.32 -47 52 C-45.01 51.57 -45.01 51.57 -43 50 C-41.9 47.26 -41.03 44.71 -40.25 41.88 C-40.03 41.12 -39.81 40.37 -39.58 39.59 C-39.04 37.73 -38.52 35.87 -38 34 C-37.01 34 -36.02 34 -35 34 C-32.02 30.15 -30.03 26.1 -28.12 21.64 C-27 20 -27 20 -24.88 19.27 C-24.26 19.18 -23.64 19.09 -23 19 C-22.84 18.15 -22.84 18.15 -22.67 17.28 C-22.17 14.84 -21.6 12.42 -21 10 C-20.84 9.32 -20.68 8.65 -20.52 7.95 C-19.94 6.12 -19.94 6.12 -18 3 C-15.1 1.5 -12.17 0.71 -9 0 C-8.3 -0.19 -7.59 -0.38 -6.87 -0.58 C-4.25 -1.17 -2.55 -0.83 0 0 Z M71 145 C72 148 72 148 72 148 Z M32 212 C32.33 212.99 32.66 213.98 33 215 C33.66 213.68 34.32 212.36 35 211 C33.78 210.93 33.78 210.93 32 212 Z M15 221 C16.98 221.99 16.98 221.99 19 223 C18.67 222.34 18.34 221.68 18 221 C17.01 221 16.02 221 15 221 Z M4 222 C4 222.33 4 222.66 4 223 C6.31 223 8.62 223 11 223 C11 222.67 11 222.34 11 222 C8.69 222 6.38 222 4 222 Z M-24 223 C-24 223.33 -24 223.66 -24 224 C-20.7 224 -17.4 224 -14 224 C-14 223.67 -14 223.34 -14 223 C-17.3 223 -20.6 223 -24 223 Z " fill="#FBFBFB" transform="translate(198,867)"/>
<path d="M0 0 C1.6 2.38 2.8 4.45 4 7 C5.89 10.4 6.71 11.81 10 14 C10.5 15.49 10.5 15.49 11 17 C11.68 18.11 11.68 18.11 12.38 19.25 C14 22 14 22 15.38 25.56 C17.14 29.29 18.79 30.53 22 33 C24.05 36.71 24.2 39.8 24 44 C24.6 44.08 25.19 44.16 25.8 44.25 C30.07 45.71 31.99 50.18 34 54 C34.69 56.3 34.69 56.3 35.12 58.44 C35.57 62.05 35.57 62.05 37.94 63.19 C38.62 63.46 39.3 63.72 40 64 C42.11 66.96 43.18 69.5 44 73 C45.73 77.61 47.33 80.71 51 84 C51 84.33 51 84.66 51 85 C51.99 86.49 51.99 86.49 53 88 C53.77 91.34 54.4 94.69 55.02 98.07 C55.68 101.11 55.68 101.11 58.04 102.21 C58.69 102.47 59.33 102.73 60 103 C60.33 103.99 60.66 104.98 61 106 C61.99 107.49 61.99 107.49 63 109 C62.67 109.99 62.34 110.98 62 112 C62.33 112.33 62.66 112.66 63 113 C63.43 114.58 63.43 114.58 63.88 116.19 C65.28 120.96 67.25 124.87 70 129 C70.39 130.99 70.73 132.99 71 135 C71.33 135 71.66 135 72 135 C73.01 140.03 73.15 144.83 73.12 149.94 C73.13 150.71 73.13 151.48 73.14 152.28 C73.13 156.96 72.77 161.39 72 166 C71.67 166 71.34 166 71 166 C70.73 166.91 70.46 167.82 70.19 168.75 C69.08 171.78 67.9 173.47 66 176 C65.28 177.98 64.6 179.98 64 182 C63.34 182 62.68 182 62 182 C62 182.66 62 183.32 62 184 C61.01 184.66 60.02 185.32 59 186 C59.27 187.07 59.54 188.14 59.81 189.25 C59.87 190.49 59.94 191.72 60 193 C57.75 195.06 57.75 195.06 55 197 C54.57 197.95 54.13 198.9 53.69 199.88 C51.65 203.64 49.33 205.24 45.84 207.61 C43.73 209.04 43.73 209.04 42 212 C39.44 212.12 39.44 212.12 37 212 C36.67 212.33 36.34 212.66 36 213 C37.32 213.33 38.64 213.66 40 214 C39.36 214.23 38.72 214.46 38.06 214.7 C32.33 216.86 27.86 219.3 23 223 C17.16 226.77 9.1 226.15 2.37 226.13 C1.18 226.13 1.18 226.13 -0.03 226.14 C-1.7 226.14 -3.36 226.13 -5.03 226.13 C-7.56 226.13 -10.09 226.13 -12.62 226.14 C-14.25 226.14 -15.88 226.13 -17.5 226.13 C-18.25 226.13 -19 226.14 -19.77 226.14 C-31.37 226.09 -31.37 226.09 -36 223 C-36.66 222.88 -37.32 222.75 -38 222.62 C-40 222 -40 222 -41.19 220.12 C-43.28 217.68 -44.35 217.44 -47.38 216.56 C-51.75 215.26 -54 213.52 -57 210 C-60.4 206.49 -63.3 203.57 -68 202 C-68.56 200.06 -68.56 200.06 -69 198 C-69.66 197.34 -70.32 196.68 -71 196 C-71.63 194.7 -72.23 193.39 -72.81 192.06 C-74.44 188.64 -74.44 188.64 -77.62 186.56 C-80 185 -80 185 -80.62 183.21 C-80.83 182.11 -80.83 182.11 -81.05 180.99 C-81.22 180.18 -81.38 179.37 -81.54 178.54 C-82.26 174.55 -82.9 170.57 -83.5 166.56 C-84.27 161.41 -85.1 156.37 -86.38 151.31 C-87.19 147.41 -86.57 145.02 -84.88 141.35 C-82.96 136.19 -82.43 130.47 -82 125 C-82.33 124.34 -82.66 123.68 -83 123 C-82.34 123 -81.68 123 -81 123 C-80.96 121.82 -80.92 120.65 -80.88 119.44 C-80.35 114.89 -78.39 112.88 -75.3 109.68 C-73.68 107.9 -73.68 107.9 -73.62 104.56 C-73.75 103.72 -73.87 102.87 -74 102 C-73.34 102 -72.68 102 -72 102 C-71.91 101.24 -71.83 100.48 -71.74 99.7 C-71.32 96.72 -70.85 93.89 -70 91 C-67.5 89.12 -67.5 89.12 -65 88 C-63.65 85.43 -63.65 85.43 -63 83 C-63.66 82.67 -64.32 82.34 -65 82 C-64.01 82 -63.02 82 -62 82 C-61.01 76.06 -61.01 76.06 -60 70 C-59.01 70 -58.02 70 -57 70 C-53.91 68.37 -53.91 68.37 -53.25 66 C-52.8 63.93 -52.8 63.93 -54 62 C-53.34 61.67 -52.68 61.34 -52 61 C-51.31 59.25 -50.61 57.5 -49.92 55.75 C-49 54 -49 54 -46.44 52.12 C-42.88 49.03 -42.65 45.53 -42 41 C-41.34 41 -40.68 41 -40 41 C-39.79 40.32 -39.59 39.64 -39.38 38.94 C-38.1 36.21 -37.02 34.83 -35 32.69 C-32.6 30.05 -31.59 28.19 -30.94 24.69 C-30.63 23.47 -30.32 22.25 -30 21 C-27.5 19.81 -27.5 19.81 -25 19 C-23.53 16.59 -23.53 16.59 -23 14 C-23.5 13.01 -23.5 13.01 -24 12 C-23.55 11.61 -23.09 11.22 -22.62 10.81 C-20.82 9.08 -20.82 9.08 -20.38 6.56 C-18.18 2.47 -14.25 1.48 -10 0 C-6.27 -1.08 -3.76 -1.25 0 0 Z M20 33 C20 34.65 20 36.3 20 38 C20.33 38 20.66 38 21 38 C21 36.35 21 34.7 21 33 C20.67 33 20.34 33 20 33 Z M70 147 C71 149 71 149 71 149 Z M70 150 C71 154 71 154 71 154 Z M31 212 C31.33 212.99 31.66 213.98 32 215 C32.66 213.68 33.32 212.36 34 211 C32.78 210.93 32.78 210.93 31 212 Z M14 221 C15.98 221.99 15.98 221.99 18 223 C17.67 222.34 17.34 221.68 17 221 C16.01 221 15.02 221 14 221 Z M2 222 C2 222.33 2 222.66 2 223 C4.64 223 7.28 223 10 223 C10 222.67 10 222.34 10 222 C7.36 222 4.72 222 2 222 Z " fill="#FBFBFB" transform="translate(649,867)"/>
<path d="M0 0 C2.35 2.79 3.73 5.28 5 8.69 C6.2 11.47 7.54 12.29 10 14 C12.64 16.94 13.34 19.15 14 23 C14.66 25.65 14.66 25.65 16 28 C17.19 28.64 17.19 28.64 18.4 29.3 C21.58 31.38 22.36 33.09 23.81 36.56 C24.23 37.53 24.65 38.5 25.08 39.5 C26 42 26 42 26 44 C26.93 44.38 26.93 44.38 27.87 44.77 C30.33 46.19 30.9 47.13 32.06 49.69 C32.56 50.75 32.56 50.75 33.06 51.83 C33.93 53.83 34.75 55.85 35.56 57.88 C36.77 61.23 36.77 61.23 40 63 C40 64.32 40 65.64 40 67 C40.66 66.67 41.32 66.34 42 66 C42.33 67.32 42.33 67.32 42.66 68.67 C44.38 75.91 44.38 75.91 49 81.38 C52.98 84.86 53.53 88.67 54.53 93.66 C55.39 97.72 55.39 97.72 58.05 100.77 C58.7 101.18 59.34 101.58 60 102 C60.33 102.99 60.66 103.98 61 105 C61.99 106.49 61.99 106.49 63 108 C62.56 110.12 62.56 110.12 62 112 C62.33 112.33 62.66 112.66 63 113 C63.46 114.41 63.89 115.83 64.31 117.25 C65.6 121.25 67.35 123.73 70 127 C70.75 130.31 70.75 130.31 71 133 C71.33 133 71.66 133 72 133 C72.79 136.48 73.13 139.7 73.13 143.27 C73.13 144.76 73.13 144.76 73.14 146.27 C73.13 147.3 73.13 148.32 73.12 149.38 C73.13 150.39 73.13 151.41 73.14 152.45 C73.12 168.2 73.12 168.2 68 174.44 C66.06 176.92 65.01 179.04 64 182 C63.34 182 62.68 182 62 182 C62 182.66 62 183.32 62 184 C61.23 184.62 61.23 184.62 60.44 185.25 C59.96 185.83 59.49 186.4 59 187 C59.23 190.15 59.23 190.15 60 193 C58.86 193.77 58.86 193.77 57.69 194.56 C54.76 196.86 54.76 196.86 53.62 200.5 C51.74 204.57 50.52 205.12 46.68 206.97 C44.66 208.03 44.66 208.03 43.19 211.06 C40.32 214.91 37.9 215.11 33.39 216.22 C30.06 217.31 28.38 219.49 26 222 C23.67 222.96 21.48 223.46 19 224 C19 224.33 19 224.66 19 225 C13.5 225.78 8.18 226.15 2.62 226.13 C1.86 226.13 1.09 226.13 0.3 226.14 C-1.32 226.14 -2.93 226.13 -4.54 226.13 C-6.99 226.13 -9.44 226.13 -11.89 226.14 C-13.47 226.14 -15.05 226.13 -16.62 226.13 C-17.35 226.13 -18.07 226.14 -18.81 226.14 C-31.38 226.08 -31.38 226.08 -36 223 C-36.7 222.69 -37.4 222.38 -38.12 222.06 C-40 221 -40 221 -41 218 C-43.78 217.08 -46.57 216.54 -49.43 215.94 C-52 215 -52 215 -53.23 212.98 C-53.48 212.32 -53.74 211.67 -54 211 C-56.3 209.59 -58.43 208.86 -61 208 C-61 206.68 -61 205.36 -61 204 C-61.84 203.66 -61.84 203.66 -62.69 203.31 C-67.38 200.65 -70.56 196.76 -73 192 C-73.14 191.3 -73.29 190.6 -73.44 189.88 C-74.22 187.28 -75.87 186.58 -78 185 C-78 184.01 -78 183.02 -78 182 C-78.66 182 -79.32 182 -80 182 C-82 175.85 -82.8 169.72 -83.56 163.31 C-83.81 161.27 -84.06 159.22 -84.32 157.18 C-84.42 156.28 -84.53 155.38 -84.64 154.45 C-84.94 152.03 -84.94 152.03 -85.6 149.85 C-86.22 146.97 -84.95 144.75 -84 142 C-82.87 136.9 -82.87 136.9 -84 132 C-83.34 132 -82.68 132 -82 132 C-81.95 131.23 -81.9 130.45 -81.85 129.66 C-80.99 117.66 -80.99 117.66 -79 112 C-76.94 110.56 -76.94 110.56 -75 110 C-73.64 108.87 -73.64 108.87 -73.94 105.94 C-73.96 104.97 -73.98 104 -74 103 C-73.34 103 -72.68 103 -72 103 C-72.33 102.01 -72.66 101.02 -73 100 C-72.34 100 -71.68 100 -71 100 C-70.96 98.76 -70.92 97.52 -70.88 96.25 C-70.62 94.02 -70.62 94.02 -70 92 C-68.03 90.63 -66.03 89.29 -64 88 C-63.5 84.83 -63.5 84.83 -64 82 C-63.34 82 -62.68 82 -62 82 C-61.01 76.06 -61.01 76.06 -60 70 C-59.34 70.66 -58.68 71.32 -58 72 C-54.08 69.65 -53.16 67.36 -52 63 C-52.99 62.5 -52.99 62.5 -54 62 C-53.57 61.63 -53.13 61.26 -52.69 60.88 C-50.8 58.97 -50.8 58.97 -49.62 55.94 C-48 53 -48 53 -45.5 52.19 C-42.73 51.22 -42.73 51.22 -41.96 48.29 C-41.77 47.22 -41.57 46.16 -41.38 45.06 C-40.16 38.56 -40.16 38.56 -37 36 C-34.46 33.46 -33.44 30.75 -32 27.5 C-31.03 25.31 -30.07 23.14 -29 21 C-28.2 20.75 -27.39 20.5 -26.56 20.25 C-23.68 19.19 -23.68 19.19 -22.69 15.88 C-22.46 14.93 -22.23 13.98 -22 13 C-22.66 12.67 -23.32 12.34 -24 12 C-23.01 12 -22.02 12 -21 12 C-20.92 10.78 -20.84 9.57 -20.75 8.31 C-19.96 5.07 -19.28 4.18 -16.44 2.32 C-5.9 -2.34 -5.9 -2.34 0 0 Z M50 84 C49.67 85.32 49.34 86.64 49 88 C49.66 88 50.32 88 51 88 C50.67 86.68 50.34 85.36 50 84 Z M70 149 C71 153 71 153 71 153 Z M70 154 C71 156 71 156 71 156 Z M36 211 C36 211.66 36 212.32 36 213 C37.65 213 39.3 213 41 213 C38.62 211.59 38.62 211.59 36 211 Z M31 212 C31.33 212.99 31.66 213.98 32 215 C32.33 214.01 32.66 213.02 33 212 C32.34 212 31.68 212 31 212 Z M4 222 C4 222.33 4 222.66 4 223 C5.98 223 7.96 223 10 223 C10 222.67 10 222.34 10 222 C8.02 222 6.04 222 4 222 Z " fill="#FBFBFB" transform="translate(1099,867)"/>
<path d="M0 0 C1.61 0.07 1.61 0.07 3.25 0.15 C4.37 0.2 5.49 0.26 6.64 0.32 C8.34 0.39 8.34 0.39 10.07 0.47 C12.87 0.6 15.66 0.74 18.46 0.88 C18.46 1.21 18.46 1.54 18.46 1.88 C10.06 2.97 1.72 3.02 -6.74 3 C-8.27 3 -9.81 3 -11.34 3.01 C-15.56 3.01 -19.78 3.01 -24 3 C-28.59 3 -33.18 3 -37.77 3 C-45.82 3 -53.86 3 -61.91 3 C-73.87 2.99 -85.83 2.99 -97.8 2.99 C-117.92 2.99 -138.04 2.99 -158.17 2.98 C-178.09 2.98 -198.02 2.97 -217.94 2.97 C-219.8 2.97 -219.8 2.97 -221.7 2.97 C-227.99 2.97 -234.28 2.97 -240.57 2.97 C-285.13 2.97 -329.69 2.96 -374.26 2.95 C-385.05 2.95 -395.85 2.95 -406.65 2.95 C-407.66 2.95 -407.66 2.95 -408.68 2.95 C-439.83 2.94 -470.97 2.94 -502.11 2.93 C-504.13 2.93 -506.16 2.93 -508.18 2.93 C-521.58 2.93 -534.98 2.93 -548.38 2.93 C-575.68 2.93 -602.97 2.92 -630.27 2.92 C-631.53 2.92 -632.78 2.92 -634.08 2.92 C-717.9 2.91 -801.72 2.9 -885.54 2.88 C-885.54 2.55 -885.54 2.22 -885.54 1.88 C-884.78 1.88 -884.02 1.88 -883.24 1.88 C-800.44 1.8 -717.64 1.72 -634.84 1.64 C-633.6 1.63 -632.37 1.63 -631.09 1.63 C-604.24 1.6 -577.38 1.58 -550.52 1.55 C-537.35 1.53 -524.18 1.52 -511.01 1.51 C-509.7 1.51 -508.39 1.5 -507.04 1.5 C-464.53 1.46 -422.01 1.42 -379.5 1.38 C-335.82 1.34 -292.15 1.29 -248.48 1.25 C-242.32 1.24 -236.15 1.23 -229.99 1.23 C-228.78 1.22 -227.57 1.22 -226.32 1.22 C-206.76 1.2 -187.2 1.18 -167.64 1.17 C-148 1.15 -128.35 1.13 -108.71 1.11 C-97.03 1.09 -85.35 1.08 -73.66 1.07 C-65.87 1.07 -58.08 1.06 -50.29 1.05 C-45.84 1.04 -41.39 1.04 -36.94 1.04 C-32.9 1.04 -28.86 1.03 -24.82 1.02 C-23.36 1.02 -21.91 1.02 -20.45 1.02 C-18.48 1.02 -16.51 1.02 -14.54 1.01 C-12.9 1.01 -12.9 1.01 -11.22 1.01 C-7.27 0.82 -4.06 -0.19 0 0 Z " fill="#010201" transform="translate(1100.54296875,679.12109375)"/>
<path d="M0 0 C0.6 0.31 1.2 0.62 1.81 0.94 C5.31 2.63 7.6 3.09 11.4 2.66 C26.27 1.16 41 0.8 55.94 0.81 C56.89 0.81 57.84 0.81 58.81 0.81 C102.63 0.81 102.63 0.81 109 4 C107.46 5.54 106.01 5.14 103.86 5.16 C102.52 5.17 102.52 5.17 101.15 5.19 C99.67 5.2 99.67 5.2 98.16 5.21 C97.12 5.22 96.09 5.23 95.02 5.24 C91.59 5.27 88.15 5.29 84.71 5.32 C82.34 5.34 79.96 5.36 77.59 5.38 C71.32 5.43 65.06 5.48 58.79 5.53 C52.41 5.58 46.02 5.64 39.63 5.69 C27.09 5.8 14.54 5.9 2 6 C1.34 4.02 0.68 2.04 0 0 Z " fill="#5D5C5A" transform="translate(809,146)"/>
<path d="M0 0 C1.32 0.66 2.64 1.32 4 2 C4 2.99 4 3.98 4 5 C4.99 5.33 5.98 5.66 7 6 C8.36 7.98 9.69 9.98 11 12 C11.74 12.74 12.48 13.49 13.25 14.25 C14.12 15.12 14.12 15.12 15 16 C15 16.66 15 17.32 15 18 C15.99 18.33 16.98 18.66 18 19 C18 19.99 18 20.98 18 22 C19.32 22.33 20.64 22.66 22 23 C22.33 24.32 22.66 25.64 23 27 C23.56 27.06 24.11 27.12 24.69 27.19 C30 29.05 33.51 34.76 37 39 C39.46 41.46 41.71 42 45 43 C45 43.66 45 44.32 45 45 C45.66 45 46.32 45 47 45 C46.67 46.32 46.34 47.64 46 49 C39.56 48.63 39.56 48.63 36.94 45.69 C36.3 44.8 35.66 43.91 35 43 C33.6 42.09 32.2 41.18 30.78 40.3 C26.77 37.37 23.44 33.56 20 30 C19.12 29.18 19.12 29.18 18.23 28.35 C17 27 17 27 17 25 C16.41 24.74 15.82 24.49 15.21 24.22 C11.28 22.05 8.81 18.43 6 15 C5.35 14.21 4.7 13.42 4.03 12.61 C-1.66 5.55 -1.66 5.55 -2 2 C-1.34 1.34 -0.68 0.68 0 0 Z " fill="#B9B5B2" transform="translate(44,577)"/>
<path d="M0 0 C3.47 1.98 3.47 1.98 7 4 C7 4.66 7 5.32 7 6 C7.99 6.66 8.98 7.32 10 8 C10 8.66 10 9.32 10 10 C10.66 10 11.32 10 12 10 C12.33 10.66 12.66 11.32 13 12 C13.99 12.33 14.98 12.66 16 13 C17.22 14.71 18.43 16.42 19.6 18.16 C20.99 19.99 22.39 21.31 24.19 22.75 C27 25 27 25 29 28 C30.01 28.8 31.02 29.61 32.06 30.44 C35.75 33.66 35.75 33.66 36 37 C35.01 37.66 34.02 38.32 33 39 C32.62 38.55 32.25 38.11 31.86 37.64 C26.56 30.88 26.56 30.88 19.75 25.94 C19.17 25.63 18.6 25.32 18 25 C17.67 23.67 17.33 22.33 17 21 C16.39 20.69 15.77 20.39 15.14 20.07 C12.81 18.91 11.83 17.85 10.25 15.81 C7.37 12.26 4.13 9.49 0.54 6.68 C-1 5 -1 5 -1 1 C-0.67 0.67 -0.34 0.34 0 0 Z " fill="#BAB6B3" transform="translate(741,81)"/>
<path d="M0 0 C3.87 1.47 5.17 3.34 7 7 C7.33 8.07 7.66 9.14 8 10.25 C8.33 11.16 8.66 12.07 9 13 C9.99 13.33 10.98 13.66 12 14 C12.33 14.66 12.66 15.32 13 16 C13.93 16.43 13.93 16.43 14.88 16.88 C17.39 18.21 18.36 19.71 20 22 C20.99 22.66 21.98 23.32 23 24 C23 24.66 23 25.32 23 26 C23.99 26.33 24.98 26.66 26 27 C25.34 27.99 24.68 28.98 24 30 C19.18 29.59 17.09 27.62 14 24 C14 23.34 14 22.68 14 22 C13.01 21.67 12.02 21.34 11 21 C11 20.34 11 19.68 11 19 C10.36 18.73 9.72 18.46 9.06 18.19 C7 17 7 17 6 14 C5.34 13.34 4.68 12.68 4 12 C-1.88 5.4 -1.88 5.4 -2 2 C-1.34 1.34 -0.68 0.68 0 0 Z " fill="#BBB7B4" transform="translate(1034,1047)"/>
<path d="M0 0 C0.66 0 1.32 0 2 0 C2.33 1.32 2.66 2.64 3 4 C3.66 4 4.32 4 5 4 C9 10.75 9 10.75 9 13 C9.99 13.33 10.98 13.66 12 14 C12.99 15.48 12.99 15.48 14 17 C14.68 17.33 15.36 17.66 16.06 18 C18 19 18 19 19 22 C20.66 23.02 22.32 24.02 24 25 C24.66 25.99 25.32 26.98 26 28 C25.34 28.66 24.68 29.32 24 30 C20.36 29.9 19 29 16.19 26.62 C14 24 14 24 14 21 C13.43 20.94 12.87 20.89 12.29 20.83 C8.96 19.62 7.61 17.5 5.44 14.75 C4.67 13.8 3.91 12.84 3.12 11.86 C1.22 9.3 -0.54 6.84 -2 4 C-1.19 1.69 -1.19 1.69 0 0 Z " fill="#BAB6B3" transform="translate(134,1047)"/>
<path d="M0 0 C0.66 0 1.32 0 2 0 C3.41 1.95 4.73 3.96 6 6 C6.58 6.91 7.15 7.82 7.75 8.75 C9 11 9 11 9 13 C9.99 13.33 10.98 13.66 12 14 C13.5 15.38 13.5 15.38 15 17 C15.5 17.49 15.99 17.99 16.5 18.5 C17.53 19.53 18.55 20.57 19.56 21.62 C20.97 23.11 20.97 23.11 23 24 C23 24.66 23 25.32 23 26 C23.99 26.33 24.98 26.66 26 27 C25.34 27.99 24.68 28.98 24 30 C21.81 29.88 21.81 29.88 19 29 C17.71 27.55 16.43 26.09 15.26 24.55 C13.91 22.77 13.91 22.77 11.38 20.94 C8.8 18.84 7.48 16.95 6 14 C6 13.34 6 12.68 6 12 C5.42 11.79 4.85 11.59 4.25 11.38 C1.19 9.5 -0.16 7.03 -2 4 C-1.34 2.68 -0.68 1.36 0 0 Z " fill="#B9B5B2" transform="translate(584,1047)"/>
<path d="M0 0 C4.89 0.42 6.77 2.44 10 6 C10.87 6.87 11.73 7.73 12.62 8.62 C13.41 9.41 14.19 10.19 15 11 C15.6 11.54 16.2 12.07 16.81 12.62 C18 14 18 14 18 17 C18.74 17.23 19.48 17.45 20.25 17.69 C23.51 19.24 24.93 21.09 27 24 C26.34 25.32 25.68 26.64 25 28 C19.12 24.38 19.12 24.38 18 21 C16.02 19.16 13.93 17.5 11.81 15.82 C9.85 13.85 9.38 12.71 9 10 C8.44 9.94 7.89 9.88 7.31 9.81 C3.96 8.63 2.26 6.7 0 4 C0 2.68 0 1.36 0 0 Z " fill="#BAB6B3" transform="translate(1210,352)"/>
<path d="M0 0 C1.14 0.01 1.14 0.01 2.31 0.01 C3.47 0.02 3.47 0.02 4.65 0.02 C9.64 0.05 14.54 0.32 19.49 1.02 C21.6 1.27 21.6 1.27 24.37 0.14 C25.03 0.47 25.69 0.8 26.37 1.14 C26.37 1.8 26.37 2.46 26.37 3.14 C21.16 4 16.16 4.29 10.88 4.27 C10.09 4.27 9.29 4.27 8.48 4.27 C6.81 4.27 5.14 4.27 3.48 4.27 C0.95 4.26 -1.58 4.27 -4.11 4.28 C-5.74 4.27 -7.37 4.27 -9 4.27 C-10.12 4.27 -10.12 4.27 -11.26 4.28 C-16.13 4.26 -20.8 3.82 -25.63 3.14 C-25.63 2.81 -25.63 2.48 -25.63 2.14 C-19.89 1.4 -14.38 1.06 -8.6 1.2 C-5.72 1.11 -3.26 0.01 0 0 Z " fill="#0C0C0B" transform="translate(190.62646484375,1088.861572265625)"/>
<path d="M0 0 C0.71 0 1.42 0.01 2.16 0.01 C2.88 0.01 3.6 0.02 4.34 0.02 C9.48 0.05 14.54 0.38 19.64 1.02 C21.97 1.28 21.97 1.28 24.78 0.14 C25.77 1.13 26.76 2.12 27.78 3.14 C22.19 3.93 16.79 4.29 11.15 4.27 C9.96 4.27 9.96 4.27 8.75 4.27 C7.08 4.27 5.42 4.27 3.75 4.27 C1.22 4.26 -1.31 4.27 -3.84 4.28 C-5.47 4.27 -7.1 4.27 -8.72 4.27 C-9.47 4.27 -10.22 4.28 -10.99 4.28 C-15.5 4.26 -19.77 3.88 -24.22 3.14 C-24.22 2.81 -24.22 2.48 -24.22 2.14 C-22.93 2.08 -21.64 2.02 -20.32 1.95 C-18.64 1.87 -16.96 1.79 -15.28 1.7 C-14.01 1.64 -14.01 1.64 -12.71 1.58 C-11.9 1.54 -11.09 1.5 -10.26 1.45 C-9.13 1.4 -9.13 1.4 -7.99 1.34 C-5.22 1.02 -3.16 0.01 0 0 Z " fill="#0C0C0B" transform="translate(640.219970703125,1088.861572265625)"/>
<path d="M0 0 C0.81 0 1.63 0.01 2.47 0.01 C3.7 0.02 3.7 0.02 4.95 0.02 C9.16 0.04 13.28 0.17 17.47 0.7 C20.81 1.45 20.81 1.45 22.97 0.14 C24.29 1.13 25.61 2.12 26.97 3.14 C21.46 3.92 16.15 4.29 10.59 4.27 C9.82 4.27 9.05 4.27 8.26 4.27 C6.65 4.27 5.04 4.27 3.42 4.27 C0.97 4.26 -1.48 4.27 -3.92 4.28 C-5.5 4.27 -7.08 4.27 -8.66 4.27 C-9.38 4.27 -10.1 4.28 -10.84 4.28 C-15.65 4.26 -20.27 3.81 -25.03 3.14 C-25.03 2.81 -25.03 2.48 -25.03 2.14 C-23.75 2.08 -22.46 2.02 -21.13 1.95 C-19.45 1.87 -17.77 1.79 -16.1 1.7 C-14.82 1.64 -14.82 1.64 -13.52 1.58 C-12.71 1.54 -11.9 1.5 -11.07 1.45 C-9.95 1.4 -9.95 1.4 -8.8 1.34 C-5.82 1 -3.4 0.01 0 0 Z " fill="#0B0B0A" transform="translate(1091.033203125,1088.861572265625)"/>
<path d="M0 0 C2 2 2 2 2.24 3.83 C2.24 4.58 2.23 5.32 2.23 6.08 C2.23 6.92 2.23 7.76 2.23 8.63 C2.22 9.54 2.21 10.45 2.2 11.38 C2.19 12.31 2.19 13.24 2.19 14.2 C2.18 17.17 2.15 20.15 2.12 23.12 C2.11 25.14 2.11 27.15 2.1 29.17 C2.08 34.11 2.04 39.06 2 44 C1.01 44.49 1.01 44.49 0 45 C-3.38 30.18 -1.72 14.91 0 0 Z " fill="#282724" transform="translate(339,1181)"/>
<path d="M0 0 C3 1 3 1 4.44 3.81 C4.95 4.86 5.47 5.92 6 7 C7.05 7.99 7.05 7.99 8.12 9 C10.53 11.56 10.69 13.56 11 17 C7.12 15.25 7.12 15.25 6 13 C3.88 12.31 3.88 12.31 1.44 11.88 C0.2 11.62 0.2 11.62 -1.07 11.37 C-1.7 11.25 -2.34 11.12 -3 11 C-2.69 9.54 -2.38 8.08 -2.06 6.62 C-1.89 5.81 -1.71 5 -1.54 4.16 C-1 2 -1 2 0 0 Z " fill="#BBB7B4" transform="translate(849,1070)"/>
<path d="M0 0 C-0.33 1.65 -0.66 3.3 -1 5 C-1.66 5 -2.32 5 -3 5 C-4.71 10.66 -6.39 16.31 -8 22 C-8.66 22 -9.32 22 -10 22 C-11.98 18.03 -11.53 13.7 -10.25 9.58 C-6.26 0 -6.26 0 0 0 Z " fill="#B7B3B0" transform="translate(647,873)"/>
<path d="M0 0 C0.66 1.32 1.32 2.64 2 4 C-2.62 8.62 -7.24 13.24 -12 18 C-13.32 17.34 -14.64 16.68 -16 16 C-4.06 2.03 -4.06 2.03 0 0 Z " fill="#BBB7B4" transform="translate(297,91)"/>
<path d="M0 0 C-1.63 5.65 -1.63 5.65 -3.56 7.5 C-5.7 9.73 -5.59 11.99 -6 15 C-6.63 17.01 -7.29 19.01 -8 21 C-8.99 21 -9.98 21 -11 21 C-11.94 12.82 -10.06 7.49 -5 1 C-3 0 -3 0 0 0 Z " fill="#ACA7A4" transform="translate(1097,873)"/>
<path d="M0 0 C0.33 0 0.66 0 1 0 C1.33 13.53 1.66 27.06 2 41 C1.34 41 0.68 41 0 41 C-0.82 36.71 -1.13 32.65 -1.13 28.28 C-1.13 27.02 -1.14 25.76 -1.14 24.46 C-1.13 23.15 -1.13 21.85 -1.12 20.5 C-1.13 19.19 -1.13 17.89 -1.14 16.54 C-1.14 15.28 -1.13 14.02 -1.13 12.72 C-1.13 11.57 -1.13 10.43 -1.13 9.25 C-1 6.08 -0.59 3.11 0 0 Z " fill="#252422" transform="translate(789,1184)"/>
<path d="M0 0 C4.25 0.47 6.27 2.89 9 6 C9 6.66 9 7.32 9 8 C9.66 8.33 10.32 8.66 11 9 C10.67 10.65 10.34 12.3 10 14 C6 13.09 4.35 11.45 2.19 8.12 C0.21 4.93 0 3.98 0 0 Z " fill="#AEAAA7" transform="translate(862,1063)"/>
<path d="M0 0 C0.6 0.31 1.2 0.62 1.81 0.94 C5.86 2.9 8.96 3.12 13.42 3.1 C14.67 3.09 15.93 3.09 17.22 3.09 C18.53 3.08 19.84 3.07 21.19 3.06 C22.52 3.06 23.86 3.05 25.19 3.05 C28.46 3.04 31.73 3.02 35 3 C32.13 5.87 30.03 5.32 26.02 5.41 C25 5.44 25 5.44 23.95 5.47 C21.76 5.53 19.57 5.58 17.38 5.62 C15.89 5.66 14.41 5.7 12.92 5.74 C9.28 5.84 5.64 5.92 2 6 C1.34 4.02 0.68 2.04 0 0 Z " fill="#888481" transform="translate(809,146)"/>
<path d="M0 0 C-1.13 3.91 -2.09 6.21 -5 9 C-5.16 9.7 -5.33 10.4 -5.5 11.12 C-5.66 11.74 -5.83 12.36 -6 13 C-6.99 13.33 -7.98 13.66 -9 14 C-9.66 13.67 -10.32 13.34 -11 13 C-11 11.35 -11 9.7 -11 8 C-10.01 7.67 -9.02 7.34 -8 7 C-7.32 5.34 -6.65 3.67 -6 2 C-3 0 -3 0 0 0 Z " fill="#A6A19E" transform="translate(197,873)"/>
<path d="M0 0 C0.99 0.5 0.99 0.5 2 1 C4.02 1.21 6.04 1.37 8.06 1.5 C13.4 1.87 18.69 2.37 24 3 C24 3.66 24 4.32 24 5 C20.38 5.23 16.75 5.43 13.12 5.62 C12.09 5.69 11.06 5.75 10 5.82 C9.01 5.87 8.02 5.92 7.01 5.98 C6.1 6.03 5.19 6.08 4.25 6.14 C2 6 2 6 0 4 C0 2.68 0 1.36 0 0 Z " fill="#797674" transform="translate(1109,296)"/>
<path d="M0 0 C2 1 2 1 3.19 3.62 C4.11 7.45 3.76 10.18 3 14 C0.12 14.12 0.12 14.12 -3 14 C-3.66 13.34 -4.32 12.68 -5 12 C-4.34 11.67 -3.68 11.34 -3 11 C-2.09 8.43 -2.09 8.43 -1.38 5.44 C-1.11 4.43 -0.85 3.41 -0.59 2.37 C-0.39 1.59 -0.2 0.81 0 0 Z " fill="#7B7875" transform="translate(819,1117)"/>
<path d="M0 0 C0.33 0 0.66 0 1 0 C1.79 3.48 2.13 6.7 2.13 10.27 C2.13 11.26 2.14 12.25 2.14 13.27 C2.13 14.3 2.13 15.32 2.12 16.38 C2.13 17.39 2.13 18.41 2.14 19.45 C2.13 24.74 1.92 29.79 1 35 C0.67 35 0.34 35 0 35 C-0.83 23.2 -1.06 11.79 0 0 Z " fill="#1C1C1A" transform="translate(1170,1000)"/>
<path d="M0 0 C-0.99 1.49 -0.99 1.49 -2 3 C-4.43 3.43 -4.43 3.43 -7.45 3.51 C-8.52 3.55 -9.6 3.58 -10.71 3.62 C-11.83 3.64 -12.96 3.66 -14.12 3.69 C-15.26 3.72 -16.4 3.76 -17.57 3.79 C-20.38 3.87 -23.19 3.94 -26 4 C-26.33 3.34 -26.66 2.68 -27 2 C-17.96 0.73 -9.16 -0.35 0 0 Z " fill="#22211F" transform="translate(189,227)"/>
<path d="M0 0 C0.33 0 0.66 0 1 0 C1 1.65 1 3.3 1 5 C1.66 5 2.32 5 3 5 C4.12 11.75 4.12 11.75 3 14 C0.12 14.12 0.12 14.12 -3 14 C-3.66 13.34 -4.32 12.68 -5 12 C-4.34 11.67 -3.68 11.34 -3 11 C-2.09 8.43 -2.09 8.43 -1.38 5.44 C-1.11 4.43 -0.85 3.41 -0.59 2.37 C-0.39 1.59 -0.2 0.81 0 0 Z " fill="#ABA7A3" transform="translate(809,1137)"/>
<path d="M0 0 C0.66 0 1.32 0 2 0 C3.97 4.76 4.01 7.96 3 13 C1.02 13 -0.96 13 -3 13 C-3.33 12.34 -3.66 11.68 -4 11 C-3.34 11 -2.68 11 -2 11 C-1.34 7.37 -0.68 3.74 0 0 Z " fill="#7D7A77" transform="translate(579,958)"/>
<path d="M0 0 C0.33 0 0.66 0 1 0 C1.12 3.37 1.12 3.37 1 7 C0.34 7.66 -0.32 8.32 -1 9 C-3.73 8.97 -6.3 8.44 -9 8 C-9 7.34 -9 6.68 -9 6 C-10.32 5.67 -11.64 5.34 -13 5 C-12.15 4.81 -11.29 4.61 -10.41 4.41 C-9.31 4.15 -8.2 3.89 -7.06 3.62 C-5.96 3.37 -4.86 3.11 -3.72 2.85 C-2.82 2.57 -1.93 2.29 -1 2 C-0.67 1.34 -0.34 0.68 0 0 Z " fill="#B5B1AE" transform="translate(390,24)"/>
<path d="M0 0 C0.66 0.33 1.32 0.66 2 1 C2.41 3.94 2.41 3.94 2.62 7.56 C2.7 8.76 2.77 9.96 2.85 11.19 C2.9 12.12 2.95 13.05 3 14 C2.01 14.33 1.02 14.66 0 15 C-0.1 14.4 -0.21 13.8 -0.31 13.19 C-0.82 10.92 -0.82 10.92 -2.56 9.56 C-4 8 -4 8 -4.19 5.31 C-4.13 4.55 -4.06 3.79 -4 3 C-3.01 2.67 -2.02 2.34 -1 2 C-0.67 1.34 -0.34 0.68 0 0 Z " fill="#42413E" transform="translate(940,1175)"/>
<path d="M0 0 C0.66 1.32 1.32 2.64 2 4 C2.99 5.49 2.99 5.49 4 7 C3.62 10.69 3.62 10.69 3 14 C0.12 14.12 0.12 14.12 -3 14 C-3.66 13.34 -4.32 12.68 -5 12 C-4.01 12 -3.02 12 -2 12 C-1.34 8.04 -0.68 4.08 0 0 Z " fill="#B5B1AE" transform="translate(129,957)"/>
<path d="M0 0 C0.66 0 1.32 0 2 0 C2.75 2.75 2.75 2.75 3 6 C0.58 9.35 -2.09 10.8 -6 12 C-6.99 12 -7.98 12 -9 12 C-8.6 11.55 -8.2 11.11 -7.79 10.64 C-5.35 7.86 -3.15 5.25 -1.25 2.06 C-0.84 1.38 -0.43 0.7 0 0 Z " fill="#9A9794" transform="translate(260,121)"/>
<path d="M0 0 C0.33 0 0.66 0 1 0 C2.01 5.03 2.15 9.83 2.12 14.94 C2.13 15.71 2.13 16.48 2.14 17.28 C2.13 21.96 1.77 26.39 1 31 C0.67 31 0.34 31 0 31 C-0.71 20.57 -1.35 10.41 0 0 Z " fill="#1D1D1A" transform="translate(720,1002)"/>
<path d="M0 0 C0.33 0 0.66 0 1 0 C1 1.65 1 3.3 1 5 C1.66 5 2.32 5 3 5 C4.12 11.75 4.12 11.75 3 14 C1.02 14 -0.96 14 -3 14 C-3.33 13.34 -3.66 12.68 -4 12 C-3.34 12 -2.68 12 -2 12 C-1.34 8.04 -0.68 4.08 0 0 Z " fill="#7D7A77" transform="translate(1039,937)"/>
<path d="M0 0 C0.33 0.99 0.66 1.98 1 3 C1.66 3 2.32 3 3 3 C4.12 9.75 4.12 9.75 3 12 C0.12 12.12 0.12 12.12 -3 12 C-3.66 11.34 -4.32 10.68 -5 10 C-4.01 10 -3.02 10 -2 10 C-1.34 6.7 -0.68 3.4 0 0 Z " fill="#726F6C" transform="translate(139,939)"/>
<path d="M0 0 C0.66 0.99 1.32 1.98 2 3 C2.39 3.58 2.78 4.15 3.19 4.75 C4.37 8.01 3.64 10.65 3 14 C1.02 14 -0.96 14 -3 14 C-3.33 13.34 -3.66 12.68 -4 12 C-3.34 12 -2.68 12 -2 12 C-1.67 10.76 -1.34 9.52 -1 8.25 C-0.81 7.55 -0.63 6.86 -0.44 6.14 C0.13 3.71 0.13 3.71 0 0 Z " fill="#8B8886" transform="translate(149,917)"/>
<path d="M0 0 C0.33 0 0.66 0 1 0 C1 1.65 1 3.3 1 5 C1.66 5 2.32 5 3 5 C4.12 11.75 4.12 11.75 3 14 C0.36 13.67 -2.28 13.34 -5 13 C-4.01 12.67 -3.02 12.34 -2 12 C-1.34 8.04 -0.68 4.08 0 0 Z " fill="#74716E" transform="translate(589,937)"/>
<path d="M0 0 C0.33 1.32 0.66 2.64 1 4 C1.66 4 2.32 4 3 4 C4.12 10.75 4.12 10.75 3 13 C1.02 13 -0.96 13 -3 13 C-3.33 12.34 -3.66 11.68 -4 11 C-3.34 11 -2.68 11 -2 11 C-1.34 7.37 -0.68 3.74 0 0 Z " fill="#888582" transform="translate(829,1098)"/>
<path d="M0 0 C2.4 2.4 2.34 3.33 2.62 6.62 C2.7 7.44 2.77 8.26 2.85 9.1 C2.93 10.04 2.93 10.04 3 11 C0.03 10.5 0.03 10.5 -3 10 C-3.75 7.25 -3.75 7.25 -4 4 C-2.06 1.62 -2.06 1.62 0 0 Z " fill="#6C6A67" transform="translate(670,900)"/>
<path d="M0 0 C0.99 0 1.98 0 3 0 C5.12 6.75 5.12 6.75 4 9 C4.66 9.33 5.32 9.66 6 10 C3.69 9.67 1.38 9.34 -1 9 C-1.62 6.19 -1.62 6.19 -2 3 C-1.34 2.01 -0.68 1.02 0 0 Z " fill="#716F6C" transform="translate(218,901)"/>
<path d="M0 0 C4.62 0.66 9.24 1.32 14 2 C13.67 2.99 13.34 3.98 13 5 C8.71 4.67 4.42 4.34 0 4 C0 2.68 0 1.36 0 0 Z " fill="#7C7976" transform="translate(611,7)"/>
<path d="M0 0 C2.65 3.26 3.22 4.8 3 9 C3.33 9.66 3.66 10.32 4 11 C2.02 11.66 0.04 12.32 -2 13 C-3.18 9.45 -2.7 8.3 -1.56 4.81 C-1.28 3.91 -0.99 3.01 -0.69 2.08 C-0.46 1.39 -0.24 0.71 0 0 Z " fill="#666260" transform="translate(369,1118)"/>
<path d="M0 0 C0.33 0 0.66 0 1 0 C1.05 2.27 1.09 4.54 1.12 6.81 C1.15 8.08 1.17 9.34 1.2 10.64 C1 14 1 14 -1 17 C-1.99 16.67 -2.98 16.34 -4 16 C-3.53 13.52 -3.05 11.04 -2.56 8.56 C-2.43 7.86 -2.29 7.15 -2.15 6.42 C-1.11 1.11 -1.11 1.11 0 0 Z " fill="#918D8B" transform="translate(10,364)"/>
<path d="M0 0 C3.01 3.01 2.6 5.82 3 10 C1.02 10 -0.96 10 -3 10 C-3.75 7.25 -3.75 7.25 -4 4 C-2.06 1.62 -2.06 1.62 0 0 Z " fill="#696764" transform="translate(930,1150)"/>
<path d="M0 0 C1.56 1.06 1.56 1.06 3 3 C2.69 6.69 2.69 6.69 2 10 C-0.31 9.67 -2.62 9.34 -5 9 C-4.55 8.26 -4.09 7.51 -3.62 6.75 C-2.31 4.53 -1.12 2.32 0 0 Z " fill="#86827F" transform="translate(600,921)"/>
<path d="M0 0 C0 1.65 0 3.3 0 5 C-2.3 6.07 -4.64 7.06 -7 8 C-7.66 7.67 -8.32 7.34 -9 7 C-8.81 5.19 -8.81 5.19 -8 3 C-5.09 0.86 -3.64 0 0 0 Z " fill="#B2ADAA" transform="translate(1206,629)"/>
<path d="M0 0 C0.33 0 0.66 0 1 0 C1.12 2.37 1.12 2.37 1 5 C-1 7 -1 7 -4.5 7.31 C-5.65 7.21 -6.81 7.11 -8 7 C-8.66 6.01 -9.32 5.02 -10 4 C-6.49 2.4 -3.86 1.78 0 2 C0 1.34 0 0.68 0 0 Z " fill="#8F8B88" transform="translate(410,16)"/>
<path d="M0 0 C0.99 0.66 1.98 1.32 3 2 C3.26 5.08 3.39 7.21 2 10 C-0.31 9.67 -2.62 9.34 -5 9 C-4.32 8.16 -4.32 8.16 -3.62 7.31 C-1.96 4.95 -0.98 2.71 0 0 Z " fill="#8A8683" transform="translate(1050,921)"/>
<path d="M0 0 C0 2.31 0 4.62 0 7 C-1.3 6.58 -2.59 6.13 -3.88 5.69 C-4.59 5.44 -5.31 5.2 -6.05 4.95 C-8 4 -8 4 -10 1 C-6.15 -1.57 -4.41 -0.83 0 0 Z " fill="#72706D" transform="translate(101,637)"/>
<path d="M0 0 C0.99 0.33 1.98 0.66 3 1 C5 6.05 5 6.05 5 8 C5.66 8.66 6.32 9.32 7 10 C4.36 9.67 1.72 9.34 -1 9 C-1.62 6.19 -1.62 6.19 -2 3 C-1.34 2.01 -0.68 1.02 0 0 Z " fill="#7C7976" transform="translate(798,131)"/>
<path d="M0 0 C2.48 0.49 2.48 0.49 5 1 C5.33 2.98 5.66 4.96 6 7 C4.35 7.66 2.7 8.32 1 9 C0 8 0 8 -0.1 6.15 C-0.07 4.1 -0.03 2.05 0 0 Z " fill="#A4A09C" transform="translate(815,1247)"/>
<path d="M0 0 C0.99 0 1.98 0 3 0 C3.66 2.97 4.32 5.94 5 9 C3.02 9 1.04 9 -1 9 C-1.62 6.19 -1.62 6.19 -2 3 C-1.34 2.01 -0.68 1.02 0 0 Z " fill="#6E6B68" transform="translate(478,1151)"/>
<path d="M0 0 C0.99 0.33 1.98 0.66 3 1 C3.33 3.31 3.66 5.62 4 8 C1.69 8.33 -0.62 8.66 -3 9 C-2.01 6.03 -1.02 3.06 0 0 Z " fill="#3E3B38" transform="translate(849,1070)"/>
<path d="M0 0 C1.56 1.25 1.56 1.25 3 3 C2.75 5.14 2.54 6.46 1 8 C-0.67 8.04 -2.33 8.04 -4 8 C-4.33 7.01 -4.66 6.02 -5 5 C-3.35 3.35 -1.7 1.7 0 0 Z " fill="#B6B2AF" transform="translate(178,893)"/>
<path d="M0 0 C1.65 0.33 3.3 0.66 5 1 C5.62 2.81 5.62 2.81 6 5 C5.01 6.49 5.01 6.49 4 8 C3.01 8 2.02 8 1 8 C-0.43 5.65 -1.09 4.52 -0.62 1.75 C-0.42 1.17 -0.21 0.6 0 0 Z " fill="#BBB7B4" transform="translate(1240,383)"/>
<path d="M0 0 C2.17 0.51 4 1 6 2 C5.34 4.31 4.68 6.62 4 9 C2.06 8.31 2.06 8.31 0 7 C-0.94 4.12 -1.37 2.74 0 0 Z " fill="#BBB7B4" transform="translate(780,123)"/>
<path d="M0 0 C0.33 0 0.66 0 1 0 C2.37 9.09 2.37 17.91 1 27 C0.67 27 0.34 27 0 27 C-0.2 24 -0.38 21 -0.56 18 C-0.62 17.16 -0.67 16.32 -0.73 15.46 C-1.04 10.14 -0.82 5.26 0 0 Z " fill="#21211F" transform="translate(270,1003)"/>
<path d="M0 0 C0.99 0.99 1.98 1.98 3 3 C1.29 5.78 0.52 6.85 -2.69 7.75 C-3.83 7.87 -3.83 7.87 -5 8 C-5.33 7.01 -5.66 6.02 -6 5 C-2.25 1.12 -2.25 1.12 0 0 Z " fill="#BBB7B4" transform="translate(1255,568)"/>
<path d="M0 0 C1.88 0.31 1.88 0.31 4 1 C6 4 6 4 5.81 6.12 C5.54 6.74 5.28 7.36 5 8 C4.01 8.33 3.02 8.66 2 9 C0 7 0 7 -0.12 3.38 C-0.08 2.26 -0.04 1.15 0 0 Z " fill="#A19C99" transform="translate(365,1247)"/>
<path d="M0 0 C2.39 2.39 2.32 3.09 2.38 6.38 C2.4 7.15 2.43 7.92 2.46 8.71 C1.84 11.78 0.32 12.99 -2 15 C-1.86 13.06 -1.71 11.12 -1.56 9.19 C-1.48 8.11 -1.4 7.03 -1.32 5.92 C-1 3 -1 3 0 0 Z " fill="#2D2C29" transform="translate(1019,984)"/>
<path d="M0 0 C1 6.88 1 6.88 1 9 C-0.65 9 -2.3 9 -4 9 C-5.35 6.29 -5.07 3.99 -5 1 C-3 0 -3 0 0 0 Z " fill="#807D7A" transform="translate(1161,972)"/>
<path d="M0 0 C-0.33 4.29 -0.66 8.58 -1 13 C-1.99 12.67 -2.98 12.34 -4 12 C-5.05 6.74 -5.05 6.74 -5 4 C-2 0 -2 0 0 0 Z " fill="#2A2927" transform="translate(943,1220)"/>
<path d="M0 0 C2.02 3.04 2.32 4.19 2.62 7.69 C2.7 8.5 2.77 9.3 2.85 10.14 C2.93 11.06 2.93 11.06 3 12 C1.35 12.33 -0.3 12.66 -2 13 C-2.33 11.68 -2.66 10.36 -3 9 C-2.34 9 -1.68 9 -1 9 C-0.67 6.03 -0.34 3.06 0 0 Z " fill="#393734" transform="translate(799,1157)"/>
<path d="M0 0 C2.62 0.38 2.62 0.38 5 1 C4.67 2.98 4.34 4.96 4 7 C2.35 6.67 0.7 6.34 -1 6 C-1.62 4.12 -1.62 4.12 -2 2 C-1.34 1.34 -0.68 0.68 0 0 Z " fill="#BBB7B4" transform="translate(881,1084)"/>
<path d="M0 0 C0.99 0 1.98 0 3 0 C2.67 2.31 2.34 4.62 2 7 C-1.75 8.12 -1.75 8.12 -4 7 C-2.93 4.08 -2.22 2.22 0 0 Z " fill="#BBB7B4" transform="translate(1142,1057)"/>
<path d="M0 0 C1.32 0 2.64 0 4 0 C4 2.31 4 4.62 4 7 C-0.45 6.01 -0.45 6.01 -5 5 C-4.01 4.01 -3.02 3.02 -2 2 C-1.34 2 -0.68 2 0 2 C0 1.34 0 0.68 0 0 Z " fill="#201F1D" transform="translate(116,647)"/>
<path d="M0 0 C2.06 0.44 2.06 0.44 4 1 C3.69 2.88 3.69 2.88 3 5 C0 7 0 7 -3 7 C-3.33 7.66 -3.66 8.32 -4 9 C-4.33 8.34 -4.66 7.68 -5 7 C-1.12 1.12 -1.12 1.12 0 0 Z " fill="#BBB7B4" transform="translate(1223,610)"/>
<path d="M0 0 C0.99 0.33 1.98 0.66 3 1 C4.48 4.49 4.2 8.28 4 12 C3.01 13.49 3.01 13.49 2 15 C1.66 13.44 1.33 11.88 1 10.31 C0.81 9.44 0.63 8.57 0.44 7.68 C0.01 5.06 -0.08 2.64 0 0 Z " fill="#353431" transform="translate(7,520)"/>
<path d="M0 0 C5.75 1.75 5.75 1.75 8 4 C7.67 4.66 7.34 5.32 7 6 C4.68 6.41 2.34 6.74 0 7 C-1.04 3.87 -0.93 3.01 0 0 Z " fill="#777573" transform="translate(1030,206)"/>
<path d="M0 0 C0.66 0.33 1.32 0.66 2 1 C1.67 3.31 1.34 5.62 1 8 C-4.75 9.12 -4.75 9.12 -7 8 C-7 7.34 -7 6.68 -7 6 C-2.62 3 -2.62 3 0 3 C0 2.01 0 1.02 0 0 Z " fill="#95918E" transform="translate(319,64)"/>
<path d="M0 0 C0.99 0 1.98 0 3 0 C2.67 2.31 2.34 4.62 2 7 C0.68 7.33 -0.64 7.66 -2 8 C-2.66 7.01 -3.32 6.02 -4 5 C-2.19 2.5 -2.19 2.5 0 0 Z " fill="#BBB7B4" transform="translate(692,1057)"/>
<path d="M0 0 C2.47 0.49 2.47 0.49 5 1 C5.37 6.42 5.37 6.42 3.5 9.38 C3 9.91 2.51 10.45 2 11 C0.58 7.18 -0.24 4.09 0 0 Z " fill="#464340" transform="translate(117,1039)"/>
<path d="M0 0 C0.99 0.33 1.98 0.66 3 1 C4 6.88 4 6.88 4 9 C2.35 9 0.7 9 -1 9 C-2.35 6.29 -2.07 3.99 -2 1 C-1.34 0.67 -0.68 0.34 0 0 Z " fill="#878481" transform="translate(708,972)"/>
<path d="M0 0 C-0.38 2.94 -0.38 2.94 -1 6 C-1.99 6.5 -1.99 6.5 -3 7 C-4.32 6.01 -5.64 5.02 -7 4 C-6.62 2.06 -6.62 2.06 -6 0 C-3.51 -1.25 -2.59 -0.78 0 0 Z " fill="#BBB7B4" transform="translate(1086,275)"/>
<path d="M0 0 C0.99 0 1.98 0 3 0 C2.67 2.31 2.34 4.62 2 7 C1.01 7.33 0.02 7.66 -1 8 C-1.99 7.01 -2.98 6.02 -4 5 C-2.19 2.5 -2.19 2.5 0 0 Z " fill="#BBB7B4" transform="translate(242,1057)"/>
<path d="M0 0 C0.87 0.34 0.87 0.34 1.75 0.69 C-1.77 5.38 -1.77 5.38 -3.25 6.69 C-4.57 6.69 -5.89 6.69 -7.25 6.69 C-6.87 3.97 -6.41 2.85 -4.44 0.88 C-2.25 -0.31 -2.25 -0.31 0 0 Z " fill="#BAB6B3" transform="translate(1217.25,619.3125)"/>
<path d="M0 0 C0.66 1.32 1.32 2.64 2 4 C1.01 5.32 0.02 6.64 -1 8 C-2.65 7.67 -4.3 7.34 -6 7 C-4.2 3.74 -3.17 2.11 0 0 Z " fill="#BBB7B4" transform="translate(67,291)"/>
<path d="M0 0 C2.25 0.25 2.25 0.25 4 1 C3.67 2.65 3.34 4.3 3 6 C1.35 6.33 -0.3 6.66 -2 7 C-2.66 6.01 -3.32 5.02 -4 4 C-2.25 1.94 -2.25 1.94 0 0 Z " fill="#BBB7B4" transform="translate(77,282)"/>
<path d="M0 0 C0.99 0.66 1.98 1.32 3 2 C3.31 5 3.31 5 3 8 C1 10 1 10 -1.62 10.12 C-2.41 10.08 -3.19 10.04 -4 10 C-3.34 9.67 -2.68 9.34 -2 9 C-1.31 6.88 -1.31 6.88 -0.88 4.44 C-0.71 3.61 -0.54 2.78 -0.37 1.93 C-0.25 1.3 -0.12 0.66 0 0 Z " fill="#9C9794" transform="translate(220,181)"/>
<path d="M0 0 C0 0.99 0 1.98 0 3 C-6.27 3 -12.54 3 -19 3 C-19 2.67 -19 2.34 -19 2 C-16.58 1.66 -14.17 1.33 -11.75 1 C-10.73 0.86 -10.73 0.86 -9.68 0.71 C-6.41 0.27 -3.32 0 0 0 Z " fill="#383633" transform="translate(449,7)"/>
<path d="M0 0 C0.99 0.33 1.98 0.66 3 1 C4.19 4.06 4.19 4.06 5 7 C3.01 7.38 1.01 7.71 -1 8 C-2 7 -2 7 -2.19 4.56 C-2 2 -2 2 0 0 Z " fill="#666461" transform="translate(458,1112)"/>
<path d="M0 0 C3.56 4.75 3.56 4.75 3 9 C2.34 9.66 1.68 10.32 1 11 C-0.32 10.67 -1.64 10.34 -3 10 C-2.01 6.7 -1.02 3.4 0 0 Z " fill="#494642" transform="translate(619,888)"/>
<path d="M0 0 C1.5 1.12 1.5 1.12 3 3 C3.31 6.06 3.31 6.06 3 9 C2.34 9.66 1.68 10.32 1 11 C-1.12 10.62 -1.12 10.62 -3 10 C-2.78 9.45 -2.57 8.89 -2.34 8.32 C-2.07 7.6 -1.79 6.87 -1.5 6.12 C-1.22 5.41 -0.94 4.69 -0.66 3.95 C0.11 2.03 0.11 2.03 0 0 Z " fill="#524F4C" transform="translate(1069,888)"/>
<path d="M0 0 C0.66 0.33 1.32 0.66 2 1 C2.62 3.56 2.62 3.56 3 6 C-0.81 7.47 -3.29 6.43 -7 5 C-5.68 4.67 -4.36 4.34 -3 4 C-3 3.01 -3 2.02 -3 1 C-2.01 0.67 -1.02 0.34 0 0 Z M-3 4 C1 5 1 5 1 5 Z " fill="#393734" transform="translate(137,656)"/>
<path d="M0 0 C0.99 0.66 1.98 1.32 3 2 C2.67 4.31 2.34 6.62 2 9 C0.02 9.33 -1.96 9.66 -4 10 C-3.67 9.01 -3.34 8.02 -3 7 C-2.34 7 -1.68 7 -1 7 C-0.67 4.69 -0.34 2.38 0 0 Z " fill="#A7A3A0" transform="translate(20,341)"/>
<path d="M0 0 C2.12 0.94 2.12 0.94 4 2 C3.67 3.65 3.34 5.3 3 7 C1.35 6.67 -0.3 6.34 -2 6 C-2 4.35 -2 2.7 -2 1 C-1.34 0.67 -0.68 0.34 0 0 Z " fill="#ADA9A6" transform="translate(107,262)"/>
<path d="M0 0 C2.06 0.44 2.06 0.44 4 1 C3.62 3.94 3.62 3.94 3 7 C2.01 7.5 2.01 7.5 1 8 C0.01 7.34 -0.98 6.68 -2 6 C-1.12 1.12 -1.12 1.12 0 0 Z " fill="#BBB7B4" transform="translate(1052,234)"/>
<path d="M0 0 C1.32 0.66 2.64 1.32 4 2 C3.67 3.65 3.34 5.3 3 7 C1.35 7 -0.3 7 -2 7 C-2.12 4.62 -2.12 4.62 -2 2 C-1.34 1.34 -0.68 0.68 0 0 Z " fill="#A6A29F" transform="translate(337,62)"/>
<path d="M0 0 C1.32 0.66 2.64 1.32 4 2 C3.31 3.94 3.31 3.94 2 6 C-0.62 6.75 -0.62 6.75 -3 7 C-3.33 6.01 -3.66 5.02 -4 4 C-2.68 2.68 -1.36 1.36 0 0 Z " fill="#BBB7B4" transform="translate(923,1238)"/>
<path d="M0 0 C1.32 0.66 2.64 1.32 4 2 C3.31 3.94 3.31 3.94 2 6 C-0.62 6.75 -0.62 6.75 -3 7 C-3.33 6.01 -3.66 5.02 -4 4 C-2.68 2.68 -1.36 1.36 0 0 Z " fill="#BBB7B4" transform="translate(473,1238)"/>
<path d="M0 0 C-0.33 3.96 -0.66 7.92 -1 12 C-1.99 12 -2.98 12 -4 12 C-4.37 4.64 -4.37 4.64 -2.56 1.5 C-1 0 -1 0 0 0 Z " fill="#2F2E2B" transform="translate(493,1220)"/>
<path d="M0 0 C-0.33 1.65 -0.66 3.3 -1 5 C-2.32 5.33 -3.64 5.66 -5 6 C-5 5.34 -5 4.68 -5 4 C-5.66 4 -6.32 4 -7 4 C-6.62 2.06 -6.62 2.06 -6 0 C-3.51 -1.25 -2.59 -0.78 0 0 Z " fill="#BBB7B4" transform="translate(1116,905)"/>
<path d="M0 0 C1.56 1.19 1.56 1.19 3 3 C3 5.5 3 5.5 2 8 C-0.56 9.81 -0.56 9.81 -3 11 C-3.33 10.34 -3.66 9.68 -4 9 C-3.03 7.32 -2.02 5.65 -1 4 C-0.3 1.81 -0.3 1.81 0 0 Z " fill="#A8A4A1" transform="translate(180,870)"/>
<path d="M0 0 C0 0.99 0 1.98 0 3 C-2 3 -2 3 -3.62 1.5 C-4.08 1 -4.53 0.51 -5 0 C-5.33 0.33 -5.66 0.66 -6 1 C-8.33 1.04 -10.67 1.04 -13 1 C-13 0.01 -13 -0.98 -13 -2 C-4.17 -3.65 -4.17 -3.65 0 0 Z " fill="#6B6764" transform="translate(170,669)"/>
<path d="M0 0 C0.99 0 1.98 0 3 0 C3.33 1.65 3.66 3.3 4 5 C1.53 6.49 1.53 6.49 -1 8 C-1.62 5.69 -1.62 5.69 -2 3 C-1.34 2.01 -0.68 1.02 0 0 Z " fill="#BBB7B4" transform="translate(1232,598)"/>
<path d="M0 0 C0.66 0.99 1.32 1.98 2 3 C1.67 3.99 1.34 4.98 1 6 C-2.29 6.8 -3.71 7.1 -7 6 C-7 5.34 -7 4.68 -7 4 C-4.69 2.68 -2.38 1.36 0 0 Z " fill="#918D8A" transform="translate(89,266)"/>
<path d="M0 0 C-1.74 2.32 -3.04 3.84 -5.98 4.34 C-8.12 4.38 -8.12 4.38 -12 4 C-12.66 3.34 -13.32 2.68 -14 2 C-4.59 -0.3 -4.59 -0.3 0 0 Z " fill="#2C2B28" transform="translate(149,237)"/>
<path d="M0 0 C0.66 0.33 1.32 0.66 2 1 C1.67 2.32 1.34 3.64 1 5 C-3.34 6.14 -7.39 5.93 -11.81 5.56 C-12.85 5.48 -12.85 5.48 -13.91 5.4 C-15.61 5.28 -17.3 5.14 -19 5 C-19 4.67 -19 4.34 -19 4 C-17.8 3.96 -16.59 3.93 -15.35 3.89 C-13.78 3.82 -12.2 3.75 -10.62 3.69 C-9.83 3.66 -9.04 3.64 -8.22 3.62 C-6.14 3.52 -4.07 3.27 -2 3 C-1.34 2.01 -0.68 1.02 0 0 Z " fill="#B8B4B1" transform="translate(189,226)"/>
<path d="M0 0 C0.6 0.23 1.2 0.45 1.81 0.69 C1.62 2.5 1.62 2.5 0.81 4.69 C-1.75 6.44 -1.75 6.44 -4.19 7.69 C-4.88 5.38 -4.88 5.38 -5.19 2.69 C-3.61 0.19 -2.98 -0.43 0 0 Z " fill="#B8B4B1" transform="translate(257.1875,142.3125)"/>
<path d="M0 0 C1.34 0.31 2.67 0.65 4 1 C6.75 1.22 9.49 1.41 12.25 1.56 C13 1.61 13.74 1.65 14.51 1.69 C16.34 1.8 18.17 1.9 20 2 C20 2.33 20 2.66 20 3 C11.75 3 3.5 3 -5 3 C-3.68 2.34 -2.36 1.68 -1 1 C-0.67 0.67 -0.34 0.34 0 0 Z " fill="#AAA6A3" transform="translate(165,1087)"/>
<path d="M0 0 C2.48 0.49 2.48 0.49 5 1 C4.49 4.72 3.88 7.73 2 11 C0.81 7.12 0 4.08 0 0 Z " fill="#45423F" transform="translate(567,1039)"/>
<path d="M0 0 C0.66 0 1.32 0 2 0 C3.6 3.51 4.22 6.14 4 10 C2.35 9.01 0.7 8.02 -1 7 C-0.67 4.69 -0.34 2.38 0 0 Z " fill="#BBB7B4" transform="translate(1025,1026)"/>
<path d="M0 0 C1.32 0.66 2.64 1.32 4 2 C3.34 3.65 2.68 5.3 2 7 C0.06 6.69 0.06 6.69 -2 6 C-2.33 5.01 -2.66 4.02 -3 3 C-2.01 2.01 -1.02 1.02 0 0 Z " fill="#BBB7B4" transform="translate(223,924)"/>
<path d="M0 0 C0.33 0 0.66 0 1 0 C1 1.98 1 3.96 1 6 C1.66 6 2.32 6 3 6 C2.67 6.99 2.34 7.98 2 9 C-0.31 9.33 -2.62 9.66 -5 10 C-3.35 6.7 -1.7 3.4 0 0 Z " fill="#878380" transform="translate(40,311)"/>
<path d="M0 0 C0.66 1.65 1.32 3.3 2 5 C1.01 5 0.02 5 -1 5 C-1 5.66 -1 6.32 -1 7 C-3.48 6.01 -3.48 6.01 -6 5 C-6 4.01 -6 3.02 -6 2 C-2.25 0 -2.25 0 0 0 Z " fill="#A39E9B" transform="translate(1004,192)"/>
<path d="M0 0 C0.33 1.32 0.66 2.64 1 4 C-2.02 5.51 -4.66 5.17 -8 5 C-9.32 4.34 -10.64 3.68 -12 3 C-8.04 2.01 -4.08 1.02 0 0 Z " fill="#383634" transform="translate(368,36)"/>
<path d="M0 0 C2.64 0.99 5.28 1.98 8 3 C7.34 4.32 6.68 5.64 6 7 C4.35 7 2.7 7 1 7 C0.67 4.69 0.34 2.38 0 0 Z " fill="#777572" transform="translate(669,26)"/>
<path d="M0 0 C2.68 2.68 2.39 4.39 2.62 8.12 C2.7 9.22 2.77 10.32 2.85 11.45 C2.9 12.29 2.95 13.13 3 14 C2.01 14.33 1.02 14.66 0 15 C0 10.05 0 5.1 0 0 Z " fill="#1E1D1B" transform="translate(490,1175)"/>
<path d="M0 0 C2.48 0.99 2.48 0.99 5 2 C5.19 4.31 5.19 4.31 5 7 C4.01 7.99 3.02 8.98 2 10 C1.34 6.7 0.68 3.4 0 0 Z " fill="#4B4744" transform="translate(1017,1039)"/>
<path d="M0 0 C0.66 0 1.32 0 2 0 C3.35 7.47 3.35 7.47 1.69 10 C0 11 0 11 -2 11 C-2.33 10.01 -2.66 9.02 -3 8 C-2.34 8 -1.68 8 -1 8 C-0.67 5.36 -0.34 2.72 0 0 Z " fill="#56524F" transform="translate(1029,959)"/>
<path d="M0 0 C0.99 0.33 1.98 0.66 3 1 C3 2.65 3 4.3 3 6 C1.02 6 -0.96 6 -3 6 C-3 4.68 -3 3.36 -3 2 C-2.01 1.34 -1.02 0.68 0 0 Z " fill="#BBB7B4" transform="translate(1202,342)"/>
<path d="M0 0 C0 0.66 0 1.32 0 2 C0.66 2.33 1.32 2.66 2 3 C1.01 4.49 1.01 4.49 0 6 C-2.62 6.19 -2.62 6.19 -5 6 C-5.33 5.01 -5.66 4.02 -6 3 C-3.38 0 -3.38 0 0 0 Z " fill="#B9B6B3" transform="translate(1174,323)"/>
<path d="M0 0 C4.29 1.32 8.58 2.64 13 4 C12.67 4.66 12.34 5.32 12 6 C4.65 6.49 4.65 6.49 1.5 4.12 C0 2 0 2 0 0 Z " fill="#2C2A28" transform="translate(1149,305)"/>
<path d="M0 0 C0.99 0.33 1.98 0.66 3 1 C3.33 1.99 3.66 2.98 4 4 C3.01 5.49 3.01 5.49 2 7 C-0.48 6.01 -0.48 6.01 -3 5 C-2.62 3.06 -2.62 3.06 -2 1 C-1.34 0.67 -0.68 0.34 0 0 Z " fill="#B8B4B1" transform="translate(1012,202)"/>
<path d="M0 0 C0.99 0 1.98 0 3 0 C3 0.66 3 1.32 3 2 C3.66 2 4.32 2 5 2 C5.33 1.34 5.66 0.68 6 0 C6.25 6.62 6.25 6.62 4 10 C2.68 6.7 1.36 3.4 0 0 Z " fill="#464340" transform="translate(346,1239)"/>
<path d="M0 0 C0 2.64 0 5.28 0 8 C-1.65 7.67 -3.3 7.34 -5 7 C-4.69 4.62 -4.69 4.62 -4 2 C-1 0 -1 0 0 0 Z " fill="#BBB7B4" transform="translate(408,1073)"/>
<path d="M0 0 C0.99 0 1.98 0 3 0 C2.67 1.65 2.34 3.3 2 5 C1.34 5 0.68 5 0 5 C-0.66 6.65 -1.32 8.3 -2 10 C-2.66 9.67 -3.32 9.34 -4 9 C-2.25 2.25 -2.25 2.25 0 0 Z " fill="#8D8884" transform="translate(644,873)"/>
<path d="M0 0 C0.66 0.33 1.32 0.66 2 1 C1.67 2.65 1.34 4.3 1 6 C-0.65 6.33 -2.3 6.66 -4 7 C-4.33 5.68 -4.66 4.36 -5 3 C-2.62 1.44 -2.62 1.44 0 0 Z " fill="#BBB7B4" transform="translate(1043,222)"/>
<path d="M0 0 C0.99 0.33 1.98 0.66 3 1 C2.67 3.31 2.34 5.62 2 8 C-0.97 7.5 -0.97 7.5 -4 7 C-3.53 6.4 -3.05 5.8 -2.56 5.19 C-0.84 3 -0.84 3 0 0 Z " fill="#A09C99" transform="translate(230,163)"/>
<path d="M0 0 C0.99 0.66 1.98 1.32 3 2 C2.67 3.32 2.34 4.64 2 6 C0.35 6.33 -1.3 6.66 -3 7 C-3.33 6.01 -3.66 5.02 -4 4 C-2.68 2.68 -1.36 1.36 0 0 Z " fill="#BBB7B4" transform="translate(307,82)"/>
<path d="M0 0 C2.12 0.94 2.12 0.94 4 2 C3.67 3.32 3.34 4.64 3 6 C0.38 6 -1.51 5.69 -4 5 C-2.25 1.12 -2.25 1.12 0 0 Z " fill="#B3AFAC" transform="translate(732,72)"/>
<path d="M0 0 C0.33 0 0.66 0 1 0 C1.05 1.6 1.09 3.21 1.12 4.81 C1.15 5.71 1.17 6.6 1.2 7.52 C1 10 1 10 -1 13 C-1.66 13 -2.32 13 -3 13 C-2.69 11.4 -2.38 9.79 -2.06 8.19 C-1.89 7.29 -1.71 6.4 -1.54 5.48 C-1 3 -1 3 0 0 Z " fill="#383633" transform="translate(350,1155)"/>
<path d="M0 0 C0.99 0.33 1.98 0.66 3 1 C2.67 2.98 2.34 4.96 2 7 C-0.48 6.01 -0.48 6.01 -3 5 C-2.62 3.06 -2.62 3.06 -2 1 C-1.34 0.67 -0.68 0.34 0 0 Z " fill="#BBB7B4" transform="translate(443,1104)"/>
<path d="M0 0 C1.32 0.33 2.64 0.66 4 1 C3.67 1.66 3.34 2.32 3 3 C4.65 3 6.3 3 8 3 C5.05 5.95 2.04 6.09 -2 7 C-1.34 4.69 -0.68 2.38 0 0 Z " fill="#272624" transform="translate(1132,1077)"/>
<path d="M0 0 C2.12 0.94 2.12 0.94 4 2 C3.34 3.65 2.68 5.3 2 7 C-0.48 6.01 -0.48 6.01 -3 5 C-2.62 3.06 -2.62 3.06 -2 1 C-1.34 0.67 -0.68 0.34 0 0 Z " fill="#BBB7B4" transform="translate(673,924)"/>
<path d="M0 0 C1.95 -0.29 1.95 -0.29 4.12 -0.19 C5.4 -0.13 6.68 -0.06 8 0 C8 0.66 8 1.32 8 2 C8.99 2.33 9.98 2.66 11 3 C6.71 3 2.42 3 -2 3 C-1.34 2.01 -0.68 1.02 0 0 Z " fill="#94918E" transform="translate(1144,666)"/>
<path d="M0 0 C2.19 0.31 2.19 0.31 4 1 C3.67 2.65 3.34 4.3 3 6 C0.56 5.62 0.56 5.62 -2 5 C-2.33 4.34 -2.66 3.68 -3 3 C-1.75 1.44 -1.75 1.44 0 0 Z " fill="#B8B4B1" transform="translate(1072,263)"/>
<path d="M0 0 C1.6 0.11 3.21 0.24 4.81 0.38 C5.71 0.44 6.6 0.51 7.52 0.59 C10 1 10 1 13 3 C7.95 3.87 4.59 4.29 0 2 C0 1.34 0 0.68 0 0 Z " fill="#272624" transform="translate(641,17)"/>
<path d="M0 0 C0.99 0 1.98 0 3 0 C3 0.66 3 1.32 3 2 C3.66 2 4.32 2 5 2 C5.33 1.34 5.66 0.68 6 0 C6.12 3.38 6.12 3.38 6 7 C5.34 7.66 4.68 8.32 4 9 C2.68 6.03 1.36 3.06 0 0 Z " fill="#474441" transform="translate(796,1239)"/>
<path d="M0 0 C0.87 0.24 0.87 0.24 1.76 0.48 C5.21 1.28 8.72 1.37 12.25 1.56 C13 1.61 13.74 1.65 14.51 1.69 C16.34 1.8 18.17 1.9 20 2 C20 2.33 20 2.66 20 3 C13.07 3 6.14 3 -1 3 C-0.67 2.01 -0.34 1.02 0 0 Z " fill="#A7A4A1" transform="translate(615,1087)"/>
<path d="M0 0 C0.66 0 1.32 0 2 0 C2.33 3.3 2.66 6.6 3 10 C1.68 10.33 0.36 10.66 -1 11 C-0.67 7.37 -0.34 3.74 0 0 Z " fill="#474541" transform="translate(119,979)"/>
<path d="M0 0 C0.33 0 0.66 0 1 0 C1.05 0.64 1.1 1.28 1.15 1.93 C1.22 2.76 1.3 3.59 1.38 4.44 C1.44 5.26 1.51 6.08 1.59 6.93 C1.72 7.62 1.86 8.3 2 9 C2.66 9.33 3.32 9.66 4 10 C2.35 10 0.7 10 -1 10 C-2.35 7.29 -2.07 4.99 -2 2 C-1.34 2 -0.68 2 0 2 C0 1.34 0 0.68 0 0 Z " fill="#ACA8A5" transform="translate(258,971)"/>
<path d="M0 0 C2.06 1.75 2.06 1.75 4 4 C3.75 6.25 3.75 6.25 3 8 C1.68 8 0.36 8 -1 8 C-1.33 6.02 -1.66 4.04 -2 2 C-1.34 2 -0.68 2 0 2 C0 1.34 0 0.68 0 0 Z " fill="#7A7875" transform="translate(688,932)"/>
<path d="M0 0 C3 2 3 2 3.69 4.62 C3.79 5.41 3.89 6.19 4 7 C2.34 7.38 0.68 7.71 -1 8 C-2 7 -2 7 -2.06 4.44 C-2.04 3.63 -2.02 2.83 -2 2 C-1.34 2 -0.68 2 0 2 C0 1.34 0 0.68 0 0 Z " fill="#817E7B" transform="translate(238,932)"/>
<path d="M0 0 C0.33 0 0.66 0 1 0 C1 3.96 1 7.92 1 12 C-0.65 12.33 -2.3 12.66 -4 13 C-2.68 8.71 -1.36 4.42 0 0 Z " fill="#1F1F1D" transform="translate(209,207)"/>
<path d="M0 0 C0.33 0 0.66 0 1 0 C1.33 3.3 1.66 6.6 2 10 C0.35 10.66 -1.3 11.32 -3 12 C-2.01 8.04 -1.02 4.08 0 0 Z " fill="#272624" transform="translate(809,1137)"/>
<path d="M0 0 C2.57 2.57 2.54 4.48 3 8 C1.68 8.33 0.36 8.66 -1 9 C-1.33 7.02 -1.66 5.04 -2 3 C-1.34 3 -0.68 3 0 3 C0 2.01 0 1.02 0 0 Z " fill="#252422" transform="translate(470,1131)"/>
<path d="M0 0 C0 1.98 0 3.96 0 6 C-1.65 6.33 -3.3 6.66 -5 7 C-5.33 6.01 -5.66 5.02 -6 4 C-2.25 0 -2.25 0 0 0 Z " fill="#BBB7B4" transform="translate(1068,914)"/>
<path d="M0 0 C2.6 -0.29 2.6 -0.29 5.62 -0.19 C7.13 -0.15 7.13 -0.15 8.66 -0.11 C9.43 -0.07 10.21 -0.04 11 0 C10.67 0.66 10.34 1.32 10 2 C7.28 2.41 7.28 2.41 3.94 2.62 C2.83 2.7 1.73 2.77 0.59 2.85 C-0.26 2.9 -1.12 2.95 -2 3 C-1.34 2.01 -0.68 1.02 0 0 Z " fill="#191917" transform="translate(1143,670)"/>
<path d="M0 0 C0.66 0 1.32 0 2 0 C2.33 2.64 2.66 5.28 3 8 C2.01 8 1.02 8 0 8 C-1 7 -1 7 -1.12 4 C-1 1 -1 1 0 0 Z " fill="#BBB7B4" transform="translate(35,556)"/>
<path d="M0 0 C0.38 1.66 0.71 3.32 1 5 C0 6 0 6 -2.56 6.06 C-3.77 6.03 -3.77 6.03 -5 6 C-4.62 3.56 -4.62 3.56 -4 1 C-2 0 -2 0 0 0 Z " fill="#BBB7B4" transform="translate(38,334)"/>
<path d="M0 0 C3.96 1.98 3.96 1.98 8 4 C5 6 5 6 1.81 5.62 C0.88 5.42 -0.04 5.21 -1 5 C-0.67 3.35 -0.34 1.7 0 0 Z " fill="#9B9895" transform="translate(990,177)"/>
<path d="M0 0 C2.97 0.5 2.97 0.5 6 1 C6 1.66 6 2.32 6 3 C6.99 3.33 7.98 3.66 9 4 C6.29 5.35 3.99 5.07 1 5 C0.67 3.35 0.34 1.7 0 0 Z " fill="#9F9B98" transform="translate(969,168)"/>
<path d="M0 0 C0.99 0 1.98 0 3 0 C3 1.98 3 3.96 3 6 C1.68 6.33 0.36 6.66 -1 7 C-1.62 5.19 -1.62 5.19 -2 3 C-1.34 2.01 -0.68 1.02 0 0 Z " fill="#BBB7B4" transform="translate(244,154)"/>
<path d="M0 0 C0.66 0.33 1.32 0.66 2 1 C2 2.98 2 4.96 2 7 C-3.42 8.23 -3.42 8.23 -6.38 7.06 C-6.91 6.71 -7.45 6.36 -8 6 C-5.36 5.67 -2.72 5.34 0 5 C0 3.35 0 1.7 0 0 Z " fill="#BCB8B5" transform="translate(369,35)"/>
<path d="M0 0 C0 0.99 0 1.98 0 3 C-4.26 4.16 -7.68 3.76 -12 3 C-8.05 0.81 -4.51 0 0 0 Z " fill="#2C2B28" transform="translate(389,27)"/>
<path d="M0 0 C0.66 0.33 1.32 0.66 2 1 C2.41 3.32 2.74 5.66 3 8 C1.68 8.33 0.36 8.66 -1 9 C-1.33 7.02 -1.66 5.04 -2 3 C-1.34 3 -0.68 3 0 3 C0 2.01 0 1.02 0 0 Z " fill="#23221F" transform="translate(920,1131)"/>
<path d="M0 0 C0.99 0.33 1.98 0.66 3 1 C2.67 2.65 2.34 4.3 2 6 C0.35 5.67 -1.3 5.34 -3 5 C-2.62 3.06 -2.62 3.06 -2 1 C-1.34 0.67 -0.68 0.34 0 0 Z " fill="#BBB7B4" transform="translate(846,1094)"/>
<path d="M0 0 C0.99 0.33 1.98 0.66 3 1 C4.33 1.14 5.67 1.25 7.01 1.32 C8.15 1.38 8.15 1.38 9.31 1.44 C10.49 1.5 10.49 1.5 11.69 1.56 C12.88 1.63 12.88 1.63 14.1 1.69 C16.07 1.8 18.03 1.9 20 2 C20 2.33 20 2.66 20 3 C13.07 3 6.14 3 -1 3 C-0.67 2.01 -0.34 1.02 0 0 Z " fill="#ADA9A6" transform="translate(1065,1087)"/>
<path d="M0 0 C0.66 0.33 1.32 0.66 2 1 C1.5 4.69 0.9 6.6 -2 9 C-3.32 8.34 -4.64 7.68 -6 7 C-5.01 7 -4.02 7 -3 7 C-2.67 5.68 -2.34 4.36 -2 3 C-1.34 3 -0.68 3 0 3 C0 2.01 0 1.02 0 0 Z " fill="#B0ACA9" transform="translate(1081,872)"/>
<path d="M0 0 C0 1.65 0 3.3 0 5 C-2.64 4.67 -5.28 4.34 -8 4 C-5.57 1.34 -3.76 0 0 0 Z " fill="#484441" transform="translate(349,47)"/>
<path d="M0 0 C0.33 0 0.66 0 1 0 C2.01 5.04 1.97 8.24 0 13 C-1.65 13 -3.3 13 -5 13 C-4.01 12.67 -3.02 12.34 -2 12 C-1.34 8.04 -0.68 4.08 0 0 Z " fill="#53514F" transform="translate(379,1097)"/>
<path d="M0 0 C0.99 0 1.98 0 3 0 C3 0.99 3 1.98 3 3 C4.32 3.33 5.64 3.66 7 4 C2.54 5.48 2.54 5.48 -2 7 C-1.67 6.03 -1.34 5.06 -1 4.06 C0.05 1.38 0.05 1.38 0 0 Z " fill="#2B2A28" transform="translate(682,1077)"/>
<path d="M0 0 C1.86 3.13 2.2 5.37 2 9 C0.68 9.33 -0.64 9.66 -2 10 C-1.12 2.25 -1.12 2.25 0 0 Z " fill="#494642" transform="translate(570,980)"/>
<path d="M0 0 C2.49 4.99 1.89 6.67 1 12 C0.01 12 -0.98 12 -2 12 C-1.34 8.04 -0.68 4.08 0 0 Z " fill="#2C2A28" transform="translate(129,957)"/>
<path d="M0 0 C0 1.98 0 3.96 0 6 C-2.97 5.5 -2.97 5.5 -6 5 C-3.74 0 -3.74 0 0 0 Z " fill="#BBB7B4" transform="translate(618,914)"/>
<path d="M0 0 C0.66 0.33 1.32 0.66 2 1 C1.67 2.65 1.34 4.3 1 6 C-0.32 6.33 -1.64 6.66 -3 7 C-2.62 4.06 -2.62 4.06 -2 1 C-1.34 0.67 -0.68 0.34 0 0 Z " fill="#BBB7B4" transform="translate(276,113)"/>
<path d="M0 0 C1.47 3.81 0.43 6.29 -1 10 C-1.33 10 -1.66 10 -2 10 C-1.86 8.52 -1.71 7.04 -1.56 5.56 C-1.48 4.74 -1.4 3.92 -1.32 3.07 C-1 1 -1 1 0 0 Z " fill="#171715" transform="translate(1272,551)"/>
<path d="M0 0 C0.33 0 0.66 0 1 0 C1.33 3.63 1.66 7.26 2 11 C0 9 0 9 -0.2 6.84 C-0.17 6.02 -0.15 5.21 -0.12 4.38 C-0.11 3.56 -0.09 2.74 -0.07 1.9 C-0.05 1.27 -0.02 0.65 0 0 Z " fill="#161614" transform="translate(1271,418)"/>
<path d="M0 0 C2.97 0.49 2.97 0.49 6 1 C4.19 2.06 4.19 2.06 2 3 C1.01 2.67 0.02 2.34 -1 2 C-0.67 1.34 -0.34 0.68 0 0 Z " fill="#171715" transform="translate(903,1270)"/>
<path d="M0 0 C1.65 0.33 3.3 0.66 5 1 C4.01 1.66 3.02 2.32 2 3 C1.01 2.67 0.02 2.34 -1 2 C-0.67 1.34 -0.34 0.68 0 0 Z " fill="#141513" transform="translate(453,1270)"/>
<path d="M0 0 C0 0.33 0 0.66 0 1 C-2.64 1 -5.28 1 -8 1 C-8 0.67 -8 0.34 -8 0 C-4.71 -0.8 -3.29 -1.1 0 0 Z " fill="#0A0A09" transform="translate(167,671)"/>
<path d="M0 0 C0.66 0 1.32 0 2 0 C1.67 1.98 1.34 3.96 1 6 C0 3 0 3 0 0 Z " fill="#1F1F1C" transform="translate(1160,1052)"/>
<path d="M0 0 C0.99 1.49 0.99 1.49 2 3 C1.67 3.66 1.34 4.32 1 5 C0.67 3.35 0.34 1.7 0 0 Z " fill="#32312E" transform="translate(260,974)"/>
<path d="M0 0 C0.33 0.66 0.66 1.32 1 2 C0.01 3.49 0.01 3.49 -1 5 C-0.67 3.35 -0.34 1.7 0 0 Z " fill="#21211E" transform="translate(1251,593)"/>
<path d="M0 0 C0.99 0.33 1.98 0.66 3 1 C1.68 1.33 0.36 1.66 -1 2 C-0.67 1.34 -0.34 0.68 0 0 Z " fill="#32312E" transform="translate(1192,650)"/>
<path d="M0 0 C0.66 0 1.32 0 2 0 C1.67 0.99 1.34 1.98 1 3 C0.67 2.01 0.34 1.02 0 0 Z " fill="#191917" transform="translate(710,1052)"/>
<path d="M0 0 C0.99 0 1.98 0 3 0 C2.67 0.66 2.34 1.32 2 2 C1.34 1.34 0.68 0.68 0 0 Z " fill="#FDFDFD" transform="translate(578,955)"/>
<path d="M0 0 C1 4 1 4 1 4 Z " fill="#CACAC9" transform="translate(599,917)"/>
<path d="M0 0 C0.66 0 1.32 0 2 0 C1.67 0.66 1.34 1.32 1 2 C0.67 1.34 0.34 0.68 0 0 Z " fill="#FDFDFD" transform="translate(368,1115)"/>
<path d="M0 0 C0.66 0 1.32 0 2 0 C1.67 0.66 1.34 1.32 1 2 C0.67 1.34 0.34 0.68 0 0 Z " fill="#21211E" transform="translate(260,1052)"/>
<path d="" fill="#FDFDFD" transform="translate(0,0)"/>
<path d="M0 0 C3 1 3 1 3 1 Z " fill="#6D6763" transform="translate(1121,679)"/>
<path d="" fill="#32312E" transform="translate(0,0)"/>
<path d="" fill="#FDFDFD" transform="translate(0,0)"/>
<path d="" fill="#FDFDFD" transform="translate(0,0)"/>
<path d="M0 0 C2 1 2 1 2 1 Z " fill="#4F4C48" transform="translate(136,1072)"/>
<path d="" fill="#FDFDFD" transform="translate(0,0)"/>
<path d="" fill="#32312E" transform="translate(0,0)"/>
<path d="" fill="#32312E" transform="translate(0,0)"/>
<path d="" fill="#32312E" transform="translate(0,0)"/>
<path d="" fill="#6D6763" transform="translate(0,0)"/>
<path d="" fill="#6D6763" transform="translate(0,0)"/>
<path d="" fill="#6D6763" transform="translate(0,0)"/>
<path d="" fill="#4F4C48" transform="translate(0,0)"/>
<path d="" fill="#4F4C48" transform="translate(0,0)"/>
<path d="" fill="#FDFDFD" transform="translate(0,0)"/>
<path d="" fill="#FDFDFD" transform="translate(0,0)"/>
<path d="M0 0 C2 1 2 1 2 1 Z " fill="#32312E" transform="translate(155,670)"/>
<path d="" fill="#4F4C48" transform="translate(0,0)"/>
<path d="" fill="#6D6763" transform="translate(0,0)"/>
<path d="M0 0 C2 1 2 1 2 1 Z " fill="#FDFDFD" transform="translate(108,249)"/>
<path d="" fill="#32312E" transform="translate(0,0)"/>
<path d="" fill="#32312E" transform="translate(0,0)"/>
<path d="" fill="#6D6763" transform="translate(0,0)"/>
<path d="" fill="#6D6763" transform="translate(0,0)"/>
<path d="" fill="#FDFDFD" transform="translate(0,0)"/>
<path d="" fill="#FDFDFD" transform="translate(0,0)"/>
<path d="" fill="#6D6763" transform="translate(0,0)"/>
<path d="" fill="#FDFDFD" transform="translate(0,0)"/>
<path d="" fill="#FDFDFD" transform="translate(0,0)"/>
<path d="" fill="#FDFDFD" transform="translate(0,0)"/>
<path d="" fill="#32312E" transform="translate(0,0)"/>
<path d="" fill="#32312E" transform="translate(0,0)"/>
<path d="" fill="#6D6763" transform="translate(0,0)"/>
<path d="" fill="#32312E" transform="translate(0,0)"/>
<path d="" fill="#32312E" transform="translate(0,0)"/>
<path d="" fill="#32312E" transform="translate(0,0)"/>
<path d="" fill="#32312E" transform="translate(0,0)"/>
<path d="" fill="#32312E" transform="translate(0,0)"/>
<path d="" fill="#32312E" transform="translate(0,0)"/>
<path d="" fill="#32312E" transform="translate(0,0)"/>
<path d="" fill="#32312E" transform="translate(0,0)"/>
<path d="" fill="#32312E" transform="translate(0,0)"/>
<path d="" fill="#32312E" transform="translate(0,0)"/>
<path d="" fill="#32312E" transform="translate(0,0)"/>
<path d="" fill="#32312E" transform="translate(0,0)"/>
<path d="" fill="#FDFDFD" transform="translate(0,0)"/>
<path d="" fill="#FDFDFD" transform="translate(0,0)"/>
<path d="" fill="#32312E" transform="translate(0,0)"/>
<path d="" fill="#32312E" transform="translate(0,0)"/>
<path d="" fill="#32312E" transform="translate(0,0)"/>
<path d="" fill="#FDFDFD" transform="translate(0,0)"/>
<path d="" fill="#6D6763" transform="translate(0,0)"/>
<path d="" fill="#FDFDFD" transform="translate(0,0)"/>
<path d="" fill="#BBB7B4" transform="translate(0,0)"/>
<path d="" fill="#BBB7B4" transform="translate(0,0)"/>
<path d="" fill="#FDFDFD" transform="translate(0,0)"/>
<path d="" fill="#6D6763" transform="translate(0,0)"/>
<path d="" fill="#FDFDFD" transform="translate(0,0)"/>
<path d="" fill="#FDFDFD" transform="translate(0,0)"/>
<path d="" fill="#FDFDFD" transform="translate(0,0)"/>
<path d="" fill="#FDFDFD" transform="translate(0,0)"/>
<path d="" fill="#FDFDFD" transform="translate(0,0)"/>
<path d="" fill="#FDFDFD" transform="translate(0,0)"/>
<path d="" fill="#FDFDFD" transform="translate(0,0)"/>
<path d="" fill="#6D6763" transform="translate(0,0)"/>
<path d="" fill="#FDFDFD" transform="translate(0,0)"/>
<path d="" fill="#32312E" transform="translate(0,0)"/>
<path d="" fill="#FDFDFD" transform="translate(0,0)"/>
<path d="" fill="#FDFDFD" transform="translate(0,0)"/>
<path d="" fill="#FDFDFD" transform="translate(0,0)"/>
<path d="" fill="#BBB7B4" transform="translate(0,0)"/>
<path d="" fill="#FDFDFD" transform="translate(0,0)"/>
<path d="" fill="#BBB7B4" transform="translate(0,0)"/>
<path d="" fill="#000100" transform="translate(0,0)"/>
<path d="" fill="#6D6763" transform="translate(0,0)"/>
<path d="" fill="#FDFDFD" transform="translate(0,0)"/>
<path d="" fill="#000100" transform="translate(0,0)"/>
<path d="" fill="#FDFDFD" transform="translate(0,0)"/>
<path d="" fill="#6D6763" transform="translate(0,0)"/>
<path d="" fill="#FDFDFD" transform="translate(0,0)"/>
<path d="" fill="#FDFDFD" transform="translate(0,0)"/>
<path d="" fill="#6D6763" transform="translate(0,0)"/>
<path d="" fill="#BBB7B4" transform="translate(0,0)"/>
<path d="" fill="#FDFDFD" transform="translate(0,0)"/>
<path d="" fill="#BBB7B4" transform="translate(0,0)"/>
<path d="" fill="#6D6763" transform="translate(0,0)"/>
<path d="" fill="#FDFDFD" transform="translate(0,0)"/>
<path d="" fill="#000100" transform="translate(0,0)"/>
<path d="" fill="#BBB7B4" transform="translate(0,0)"/>
<path d="" fill="#32312E" transform="translate(0,0)"/>
<path d="" fill="#FDFDFD" transform="translate(0,0)"/>
<path d="" fill="#FDFDFD" transform="translate(0,0)"/>
<path d="" fill="#FDFDFD" transform="translate(0,0)"/>
<path d="" fill="#FDFDFD" transform="translate(0,0)"/>
<path d="" fill="#FDFDFD" transform="translate(0,0)"/>
<path d="" fill="#FDFDFD" transform="translate(0,0)"/>
<path d="" fill="#FDFDFD" transform="translate(0,0)"/>
<path d="" fill="#BBB7B4" transform="translate(0,0)"/>
<path d="" fill="#FDFDFD" transform="translate(0,0)"/>
<path d="" fill="#6D6763" transform="translate(0,0)"/>
</svg>
